<?xml version="1.0" standalone="no"?>
<!DOCTYPE svg PUBLIC "-//W3C//DTD SVG 1.1//EN" "http://www.w3.org/Graphics/SVG/1.1/DTD/svg11.dtd" >
<svg xmlns="http://www.w3.org/2000/svg">
<metadata></metadata>
<defs>
<font id="geometry_soft_probold_n" horiz-adv-x="1146" >
<font-face units-per-em="2048" ascent="1638" descent="-410" />
<missing-glyph horiz-adv-x="557" />
<glyph horiz-adv-x="2048" />
<glyph horiz-adv-x="2048" />
<glyph unicode="&#xd;" horiz-adv-x="2048" />
<glyph unicode=" "  horiz-adv-x="557" />
<glyph unicode="&#x09;" horiz-adv-x="557" />
<glyph unicode="&#xa0;" horiz-adv-x="557" />
<glyph unicode="!" horiz-adv-x="425" d="M66 147q0 62 43 105t104 43t104 -43t43 -105q0 -61 -43 -104t-104 -43t-104 43t-43 104zM82 524v787q0 54 38.5 92.5t92.5 38.5t92.5 -38.5t38.5 -92.5v-787q0 -54 -38.5 -92.5t-92.5 -38.5t-92.5 38.5t-38.5 92.5z" />
<glyph unicode="&#x22;" horiz-adv-x="688" d="M49 1049v262q0 54 38.5 92.5t92.5 38.5t92.5 -38.5t38.5 -92.5v-262q0 -54 -38.5 -92.5t-92.5 -38.5t-92.5 38.5t-38.5 92.5zM377 1049v262q0 54 38.5 92.5t92.5 38.5t92.5 -38.5t38.5 -92.5v-262q0 -54 -38.5 -92.5t-92.5 -38.5t-92.5 38.5t-38.5 92.5z" />
<glyph unicode="#" horiz-adv-x="1277" d="M49 393q0 54 38.5 92.5t92.5 38.5h66v262h-66q-54 0 -92.5 39t-38.5 93t38.5 92.5t92.5 38.5h66v65q0 54 38.5 92.5t92.5 38.5t92.5 -38.5t38.5 -92.5v-65h262v65q0 54 38.5 92.5t92.5 38.5t92.5 -38.5t38.5 -92.5v-65h66q54 0 92.5 -38.5t38.5 -92.5t-38.5 -93 t-92.5 -39h-66v-262h66q54 0 92.5 -38.5t38.5 -92.5t-38.5 -92.5t-92.5 -38.5h-66v-65q0 -54 -38.5 -92.5t-92.5 -38.5t-92.5 38.5t-38.5 92.5v65h-262v-65q0 -54 -38.5 -92.5t-92.5 -38.5t-92.5 38.5t-38.5 92.5v65h-66q-54 0 -92.5 38.5t-38.5 92.5zM508 524h262v262h-262 v-262z" />
<glyph unicode="$" d="M49 262q0 54 38.5 92.5t92.5 38.5h295v131h-98q-135 0 -231.5 96.5t-96.5 231.5t96.5 231.5t231.5 96.5h98v32q0 40 29 69.5t69 29.5t69.5 -29.5t29.5 -69.5v-32h229q54 0 92.5 -38.5t38.5 -92.5t-38.5 -92.5t-92.5 -38.5h-229v-132h98q135 0 231.5 -96t96.5 -231 t-96.5 -231.5t-231.5 -96.5h-98v-33q0 -40 -29.5 -69t-69.5 -29t-69 29t-29 69v33h-295q-54 0 -92.5 38.5t-38.5 92.5zM311 852q0 -28 19 -47t47 -19h98v132h-98q-28 0 -47 -19t-19 -47zM672 393h98q28 0 47 19t19 47t-19 46.5t-47 18.5h-98v-131z" />
<glyph unicode="%" horiz-adv-x="1409" d="M49 98q0 41 29 70l1114 1114q29 29 70 29t69.5 -29t28.5 -70q0 -40 -29 -69l-1114 -1114q-29 -29 -70 -29t-69.5 28.5t-28.5 69.5zM49 1016q0 122 86.5 208.5t208.5 86.5t208.5 -86.5t86.5 -208.5t-86.5 -208.5t-208.5 -86.5t-208.5 86.5t-86.5 208.5zM246 1016 q0 -40 29 -69t69 -29t69 29t29 69t-29 69t-69 29t-69 -29t-29 -69zM770 295q0 121 87 208t208 87t208 -87t87 -208t-87 -208t-208 -87t-208 87t-87 208zM967 295q0 -40 29 -69t69 -29t69 29t29 69t-29 69t-69 29t-69 -29t-29 -69z" />
<glyph unicode="&#x26;" horiz-adv-x="1277" d="M49 393q0 150 101 262q-101 112 -101 263q0 163 115 278t278 115h246q102 0 199 -39.5t172 -114.5q39 -39 39 -92t-39 -92t-92 -39q-54 0 -93 39q-79 76 -186 76h-246q-54 0 -92.5 -38.5t-38.5 -92.5t38.5 -93t92.5 -39h721q54 0 92.5 -38.5t38.5 -92.5t-38.5 -92.5 t-92.5 -38.5h-65v-131q0 -163 -115 -278t-278 -115h-263q-163 0 -278 115t-115 278zM311 393q0 -54 38.5 -92.5t92.5 -38.5h263q54 0 92.5 38.5t38.5 92.5v131h-394q-54 0 -92.5 -38.5t-38.5 -92.5z" />
<glyph unicode="'" horiz-adv-x="360" d="M49 1049v262q0 54 38.5 92.5t92.5 38.5t92.5 -38.5t38.5 -92.5v-262q0 -54 -38.5 -92.5t-92.5 -38.5t-92.5 38.5t-38.5 92.5z" />
<glyph unicode="(" horiz-adv-x="835" d="M33 655q0 178 87.5 329t238.5 239t329 88q54 0 92.5 -38.5t38.5 -92.5t-38.5 -92.5t-92.5 -38.5q-163 0 -278 -115.5t-115 -278.5t115 -278t278 -115q54 0 92.5 -38.5t38.5 -92.5t-38.5 -92.5t-92.5 -38.5q-133 0 -254.5 52t-209 139.5t-139.5 209t-52 254.5z" />
<glyph unicode=")" horiz-adv-x="835" d="M16 131q0 54 38.5 92.5t92.5 38.5q163 0 278.5 115t115.5 278t-115.5 278.5t-278.5 115.5q-54 0 -92.5 38.5t-38.5 92.5t38.5 92.5t92.5 38.5q178 0 329 -88t239 -239t88 -329t-88 -329t-239 -238.5t-329 -87.5q-54 0 -92.5 38.5t-38.5 92.5z" />
<glyph unicode="*" horiz-adv-x="884" d="M49 655q0 54 39 93l137 137h185v-185l-138 -137q-39 -39 -92 -39q-52 0 -91.5 39t-39.5 92zM49 1180q0 52 39.5 91.5t91.5 39.5q53 0 92 -39l138 -137v-185h-185l-137 137q-39 39 -39 93zM475 700v185h180l142 -137q39 -39 39 -93q0 -53 -39 -92t-92 -39q-54 0 -93 39z M475 950v185l137 137q39 39 93 39q53 0 92 -39.5t39 -91.5q0 -54 -39 -93l-142 -137h-180z" />
<glyph unicode="+" d="M49 655q0 54 38.5 92.5t92.5 38.5h262v263q0 54 38.5 92.5t92.5 38.5t93 -38.5t39 -92.5v-263h262q54 0 92.5 -38.5t38.5 -92.5t-38.5 -92.5t-92.5 -38.5h-262v-262q0 -54 -39 -92.5t-93 -38.5t-92.5 38.5t-38.5 92.5v262h-262q-54 0 -92.5 38.5t-38.5 92.5z" />
<glyph unicode="," horiz-adv-x="360" d="M49 -131v262q0 54 38.5 92.5t92.5 38.5t92.5 -38.5t38.5 -92.5v-262q0 -54 -38.5 -92.5t-92.5 -38.5t-92.5 38.5t-38.5 92.5z" />
<glyph unicode="-" horiz-adv-x="753" d="M49 655q0 54 38.5 92.5t92.5 38.5h393q54 0 93 -38.5t39 -92.5t-39 -92.5t-93 -38.5h-393q-54 0 -92.5 38.5t-38.5 92.5z" />
<glyph unicode="." horiz-adv-x="360" d="M33 147q0 62 43 105t104 43q62 0 105 -43.5t43 -104.5t-43 -104t-105 -43t-104.5 43t-42.5 104z" />
<glyph unicode="/" horiz-adv-x="1277" d="M-16 131q0 56 39 92l1048 1049q39 39 92 39t92 -39.5t39 -91.5q0 -54 -39 -93l-1048 -1048q-36 -39 -92 -39q-54 0 -92.5 38.5t-38.5 92.5z" />
<glyph unicode="0" d="M49 524v262q0 142 70 263t191 191.5t263 70.5t263 -70.5t191.5 -191.5t70.5 -263v-262q0 -142 -70.5 -263t-191.5 -191t-263 -70q-106 0 -203.5 41.5t-167.5 111.5t-111.5 167.5t-41.5 203.5zM311 524q0 -109 76.5 -185.5t185.5 -76.5t186 76.5t77 185.5v262 q0 109 -77 186t-186 77t-185.5 -77t-76.5 -186v-262zM426 655q0 62 43 105t104 43t104.5 -43.5t43.5 -104.5t-43 -104t-105 -43q-61 0 -104 43t-43 104z" />
<glyph unicode="1" horiz-adv-x="851" d="M49 131q0 54 38.5 92.5t92.5 38.5h131v602l-39 -39q-39 -39 -92 -39q-54 0 -92.5 39t-38.5 93q0 56 39 92l262 262q39 39 92 39q54 0 92.5 -38.5t38.5 -92.5v-918h132q54 0 92.5 -38.5t38.5 -92.5t-38.5 -92.5t-92.5 -38.5h-525q-54 0 -92.5 38.5t-38.5 92.5z" />
<glyph unicode="2" horiz-adv-x="1114" d="M16 131v131q0 142 70.5 263t191.5 191t263 70h131q54 0 92.5 39t38.5 93t-38.5 92.5t-92.5 38.5h-459q-54 0 -92.5 38.5t-38.5 92.5t38.5 92.5t92.5 38.5h459q163 0 278 -115t115 -278t-115 -278.5t-278 -115.5h-131q-109 0 -185.5 -76.5t-76.5 -185.5h655 q54 0 92.5 -38.5t38.5 -92.5t-38.5 -92.5t-92.5 -38.5h-787q-54 0 -92.5 38.5t-38.5 92.5z" />
<glyph unicode="3" horiz-adv-x="1114" d="M16 131q0 54 38.5 92.5t92.5 38.5h525q54 0 92.5 38.5t38.5 92.5t-38.5 92.5t-92.5 38.5h-393q-54 0 -93 38.5t-39 92.5t39 92.5t93 38.5h393q54 0 92.5 39t38.5 93t-38.5 92.5t-92.5 38.5h-525q-54 0 -92.5 38.5t-38.5 92.5t38.5 92.5t92.5 38.5h525q163 0 278 -115 t115 -278q0 -152 -100 -263q100 -111 100 -262q0 -163 -115 -278t-278 -115h-525q-54 0 -92.5 38.5t-38.5 92.5z" />
<glyph unicode="4" horiz-adv-x="1179" d="M49 655v525q0 54 38.5 92.5t92.5 38.5t92.5 -38.5t38.5 -92.5v-394h525v394q0 54 38.5 92.5t92.5 38.5t92.5 -38.5t38.5 -92.5v-1049q0 -54 -38.5 -92.5t-92.5 -38.5t-92.5 38.5t-38.5 92.5v393h-656q-54 0 -92.5 38.5t-38.5 92.5z" />
<glyph unicode="5" horiz-adv-x="1179" d="M82 131q0 54 38.5 92.5t92.5 38.5h524q54 0 92.5 38.5t38.5 92.5t-38.5 92.5t-92.5 38.5h-524q-54 0 -92.5 38.5t-38.5 92.5v525q0 54 38.5 92.5t92.5 38.5h721q54 0 92.5 -38.5t38.5 -92.5t-38.5 -92.5t-92.5 -38.5h-590v-263h393q163 0 278 -115t115 -278t-115 -278 t-278 -115h-524q-54 0 -92.5 38.5t-38.5 92.5z" />
<glyph unicode="6" d="M49 393v393q0 142 70 263t191 191.5t263 70.5h263q54 0 92.5 -38.5t38.5 -92.5t-38.5 -92.5t-92.5 -38.5h-263q-109 0 -185.5 -77t-76.5 -186v-22q64 22 131 22h263q163 0 278 -115t115 -278t-115 -278t-278 -115h-263q-163 0 -278 115t-115 278zM311 393 q0 -54 38.5 -92.5t92.5 -38.5h263q54 0 92.5 38.5t38.5 92.5t-38.5 92.5t-92.5 38.5h-263q-54 0 -92.5 -38.5t-38.5 -92.5z" />
<glyph unicode="7" horiz-adv-x="1081" d="M16 1180q0 54 38.5 92.5t92.5 38.5h787q54 0 92.5 -38.5t38.5 -92.5v-131q0 -181 -111.5 -323t-281.5 -185v-410q0 -54 -38.5 -92.5t-92.5 -38.5t-92.5 38.5t-38.5 92.5v524q0 54 38.5 92.5t92.5 38.5q109 0 185.5 77t76.5 186h-656q-54 0 -92.5 38.5t-38.5 92.5z" />
<glyph unicode="8" d="M49 393q0 88 36.5 166t100.5 133q-71 99 -71 226q0 163 115 278t278 115h131q163 0 278 -115t115 -278q0 -127 -71 -226q64 -55 100.5 -133t36.5 -166q0 -163 -115 -278t-278 -115h-263q-163 0 -278 115t-115 278zM311 393q0 -54 38.5 -92.5t92.5 -38.5h263 q54 0 92.5 38.5t38.5 92.5t-38.5 92.5t-92.5 38.5h-263q-54 0 -92.5 -38.5t-38.5 -92.5zM377 918q0 -54 38.5 -93t92.5 -39h131q54 0 92.5 39t38.5 93t-38.5 92.5t-92.5 38.5h-131q-54 0 -92.5 -38.5t-38.5 -92.5z" />
<glyph unicode="9" d="M49 918q0 163 115 278t278 115h263q163 0 278 -115t115 -278v-394q0 -142 -70.5 -263t-191.5 -191t-263 -70h-262q-54 0 -92.5 38.5t-38.5 92.5t38.5 92.5t92.5 38.5h262q109 0 186 76.5t77 185.5v23q-67 -23 -131 -23h-263q-163 0 -278 115.5t-115 278.5zM311 918 q0 -54 38.5 -93t92.5 -39h263q54 0 92.5 39t38.5 93t-38.5 92.5t-92.5 38.5h-263q-54 0 -92.5 -38.5t-38.5 -92.5z" />
<glyph unicode=":" horiz-adv-x="360" d="M33 344q0 62 43 105t104 43q62 0 105 -43t43 -105q0 -61 -43 -104t-105 -43t-104.5 42.5t-42.5 104.5zM33 836q0 62 42.5 104.5t104.5 42.5t105 -43t43 -104q0 -62 -43 -105t-105 -43q-61 0 -104 43t-43 105z" />
<glyph unicode=";" horiz-adv-x="360" d="M33 836q0 62 42.5 104.5t104.5 42.5t105 -43t43 -104q0 -62 -43 -105t-105 -43q-61 0 -104 43t-43 105zM49 66v262q0 54 38.5 92.5t92.5 38.5t92.5 -38.5t38.5 -92.5v-262q0 -54 -38.5 -93t-92.5 -39t-92.5 39t-38.5 93z" />
<glyph unicode="&#x3c;" horiz-adv-x="884" d="M49 655q0 56 37 93l526 524q39 39 93 39q53 0 92 -39.5t39 -91.5q0 -56 -37 -93l-432 -432l432 -432q34 -37 37 -92q0 -53 -39 -92t-92 -39q-54 0 -93 39l-526 524q-37 34 -37 92z" />
<glyph unicode="=" d="M49 393q0 54 38.5 92.5t92.5 38.5h787q54 0 92.5 -38.5t38.5 -92.5t-38.5 -92.5t-92.5 -38.5h-787q-54 0 -92.5 38.5t-38.5 92.5zM49 918q0 54 38.5 92.5t92.5 38.5h787q54 0 92.5 -38.5t38.5 -92.5t-38.5 -93t-92.5 -39h-787q-54 0 -92.5 39t-38.5 93z" />
<glyph unicode="&#x3e;" horiz-adv-x="884" d="M49 131q0 55 37 92l432 432l-432 432q-37 34 -37 93q0 52 39.5 91.5t91.5 39.5q53 0 92 -39l527 -524q33 -31 37 -93q0 -55 -37 -92l-527 -524q-39 -39 -92 -39q-52 0 -91.5 39t-39.5 92z" />
<glyph unicode="?" horiz-adv-x="1114" d="M16 918q0 142 70.5 263t191.5 191t263 70q106 0 203.5 -41.5t167.5 -111.5t111.5 -167.5t41.5 -203.5q0 -142 -70 -263t-191 -191.5t-263 -70.5q-54 0 -92.5 38.5t-38.5 92.5t38.5 92.5t92.5 38.5q109 0 185.5 77t76.5 186t-76.5 185.5t-185.5 76.5t-185.5 -76.5 t-76.5 -185.5q0 -54 -39 -93t-93 -39t-92.5 39t-38.5 93zM393 147q0 61 43.5 104.5t104.5 43.5t104 -43t43 -105q0 -61 -43 -104t-104 -43q-62 0 -105 43t-43 104z" />
<glyph unicode="@" horiz-adv-x="1638" d="M33 524q0 160 62.5 305.5t167.5 251t250.5 168t305.5 62.5t305.5 -62.5t251 -168t168 -251t62.5 -305.5q0 -163 -115.5 -278t-278.5 -115h-393q-163 0 -278 115t-115 278t115 278.5t278 115.5t278 -115.5t115 -278.5v-131q54 0 92.5 38.5t38.5 92.5q0 142 -70 263 t-191 191.5t-263 70.5t-263 -70.5t-191 -191.5t-70 -263q0 -106 41.5 -203.5t111.5 -167.5t167.5 -111.5t203.5 -41.5h262q54 0 92.5 -38.5t38.5 -92.5t-38.5 -92.5t-92.5 -38.5h-262q-160 0 -305.5 62.5t-250.5 167.5t-167.5 250.5t-62.5 305.5zM688 524q0 -54 38.5 -92.5 t92.5 -38.5h131v131q0 54 -38.5 92.5t-92.5 38.5t-92.5 -38.5t-38.5 -92.5z" />
<glyph unicode="A" horiz-adv-x="1343" d="M82 131v590q0 160 79 296t215 215t296 79t296 -79t215 -215t79 -296v-590q0 -54 -39 -92.5t-93 -38.5t-92.5 38.5t-38.5 92.5v262h-655v-262q0 -54 -38.5 -92.5t-92.5 -38.5t-92.5 38.5t-38.5 92.5zM344 655h655v66q0 135 -96 231.5t-231 96.5t-231.5 -96.5t-96.5 -231.5 v-66z" />
<glyph unicode="B" horiz-adv-x="1294" d="M82 131v1049q0 54 38.5 92.5t92.5 38.5h590q163 0 278 -115t115 -278q0 -125 -72 -226q64 -55 101 -133t37 -166q0 -163 -115.5 -278t-278.5 -115h-655q-54 0 -92.5 38.5t-38.5 92.5zM344 262h524q54 0 92.5 38.5t38.5 92.5t-38.5 92.5t-92.5 38.5h-524v-262zM344 786 h459q54 0 92.5 39t38.5 93t-38.5 92.5t-92.5 38.5h-459v-263z" />
<glyph unicode="C" horiz-adv-x="1212" d="M33 655q0 178 87.5 329t238.5 239t329 88q127 0 247 -49.5t216 -143.5q39 -39 39 -92q0 -54 -39 -92.5t-92 -38.5q-56 0 -92 39q-112 115 -279 115q-163 0 -278 -115.5t-115 -278.5t115 -278t278 -115q164 0 279 115q39 39 92 39t92 -39t39 -92t-39 -92 q-95 -95 -215 -144t-248 -49q-133 0 -254.5 52t-209 139.5t-139.5 209t-52 254.5z" />
<glyph unicode="D" horiz-adv-x="1294" d="M82 131v1049q0 54 38.5 92.5t92.5 38.5h393q178 0 329 -88t239 -239t88 -329t-88 -329t-239 -238.5t-329 -87.5h-393q-54 0 -92.5 38.5t-38.5 92.5zM344 262h262q163 0 278 115t115 278t-115 278.5t-278 115.5h-262v-787z" />
<glyph unicode="E" d="M82 131v1049q0 54 38.5 92.5t92.5 38.5h786q54 0 92.5 -38.5t38.5 -92.5t-38.5 -92.5t-92.5 -38.5h-655v-263h524q54 0 92.5 -38.5t38.5 -92.5t-38.5 -92.5t-92.5 -38.5h-524v-262h655q54 0 92.5 -38.5t38.5 -92.5t-38.5 -92.5t-92.5 -38.5h-786q-54 0 -92.5 38.5 t-38.5 92.5z" />
<glyph unicode="F" d="M82 131v1049q0 54 38.5 92.5t92.5 38.5h786q54 0 92.5 -38.5t38.5 -92.5t-38.5 -92.5t-92.5 -38.5h-655v-263h492q54 0 92.5 -38.5t38.5 -92.5t-38.5 -92.5t-92.5 -38.5h-492v-393q0 -54 -38.5 -92.5t-92.5 -38.5t-92.5 38.5t-38.5 92.5z" />
<glyph unicode="G" horiz-adv-x="1277" d="M33 655q0 178 87.5 329t238.5 239t329 88q127 0 247 -49.5t216 -143.5q39 -39 39 -92q0 -54 -39 -92.5t-92 -38.5q-56 0 -92 39q-112 115 -279 115q-163 0 -278 -115.5t-115 -278.5t115 -278t278 -115q135 0 240 80v182h-109q-54 0 -92.5 38.5t-38.5 92.5t38.5 92.5 t92.5 38.5h240q54 0 92.5 -38.5t38.5 -92.5v-370q0 -33 -16 -62q32 -43 32 -92q0 -61 -43 -104t-104 -43q-80 0 -123 65q-119 -49 -248 -49q-133 0 -254.5 52t-209 139.5t-139.5 209t-52 254.5z" />
<glyph unicode="H" horiz-adv-x="1343" d="M82 131v1049q0 54 38.5 92.5t92.5 38.5t92.5 -38.5t38.5 -92.5v-394h655v394q0 54 38.5 92.5t92.5 38.5t93 -38.5t39 -92.5v-1049q0 -54 -39 -92.5t-93 -38.5t-92.5 38.5t-38.5 92.5v393h-655v-393q0 -54 -38.5 -92.5t-92.5 -38.5t-92.5 38.5t-38.5 92.5z" />
<glyph unicode="I" horiz-adv-x="819" d="M16 131q0 54 38.5 92.5t92.5 38.5h132v787h-132q-54 0 -92.5 38.5t-38.5 92.5t38.5 92.5t92.5 38.5h525q54 0 92.5 -38.5t38.5 -92.5t-38.5 -92.5t-92.5 -38.5h-131v-787h131q54 0 92.5 -38.5t38.5 -92.5t-38.5 -92.5t-92.5 -38.5h-525q-54 0 -92.5 38.5t-38.5 92.5z" />
<glyph unicode="J" horiz-adv-x="1114" d="M16 524q0 54 38.5 92.5t92.5 38.5t93 -38.5t39 -92.5q0 -109 76.5 -185.5t185.5 -76.5t185.5 76.5t76.5 185.5v656q0 54 38.5 92.5t92.5 38.5t92.5 -38.5t38.5 -92.5v-656q0 -106 -41.5 -203.5t-111.5 -167.5t-167.5 -111.5t-203.5 -41.5q-142 0 -263 70t-191.5 191 t-70.5 263z" />
<glyph unicode="K" horiz-adv-x="1425" d="M82 131v1049q0 54 38.5 92.5t92.5 38.5t92.5 -38.5t38.5 -92.5v-734l825 826q39 39 93 39t92.5 -38.5t38.5 -92.5t-39 -93l-432 -432l432 -432q39 -36 39 -92q0 -54 -38.5 -92.5t-92.5 -38.5q-57 0 -93 39l-432 432l-432 -432q-36 -39 -92 -39q-54 0 -92.5 38.5 t-38.5 92.5z" />
<glyph unicode="L" d="M82 131v1049q0 54 38.5 92.5t92.5 38.5t92.5 -38.5t38.5 -92.5v-918h655q54 0 92.5 -38.5t38.5 -92.5t-38.5 -92.5t-92.5 -38.5h-786q-54 0 -92.5 38.5t-38.5 92.5z" />
<glyph unicode="M" horiz-adv-x="1605" d="M82 131v1049q0 54 38.5 92.5t92.5 38.5q53 0 92 -39l498 -498l497 498q39 39 93 39t92.5 -38.5t38.5 -92.5v-1049q0 -54 -38.5 -92.5t-92.5 -38.5t-92.5 38.5t-38.5 92.5v733l-367 -366q-36 -39 -92 -39t-92 39l-367 366v-733q0 -54 -38.5 -92.5t-92.5 -38.5t-92.5 38.5 t-38.5 92.5z" />
<glyph unicode="N" horiz-adv-x="1474" d="M82 131v1049q0 54 38.5 92.5t92.5 38.5q53 0 92 -39l825 -826v734q0 54 39 92.5t93 38.5t92.5 -38.5t38.5 -92.5v-1049q0 -54 -38.5 -92.5t-92.5 -38.5q-57 0 -93 39l-825 825v-733q0 -54 -38.5 -92.5t-92.5 -38.5t-92.5 38.5t-38.5 92.5z" />
<glyph unicode="O" horiz-adv-x="1376" d="M33 655q0 178 87.5 329t238.5 239t329 88t329 -88t238.5 -239t87.5 -329q0 -133 -52 -254.5t-139.5 -209t-209 -139.5t-254.5 -52t-254.5 52t-209 139.5t-139.5 209t-52 254.5zM295 655q0 -163 115 -278t278 -115t278 115t115 278t-115 278.5t-278 115.5t-278 -115.5 t-115 -278.5z" />
<glyph unicode="P" horiz-adv-x="1294" d="M82 131v1049q0 54 38.5 92.5t92.5 38.5h590q191 0 325 -134.5t134 -324.5t-134 -324.5t-325 -134.5h-459v-262q0 -54 -38.5 -92.5t-92.5 -38.5t-92.5 38.5t-38.5 92.5zM344 655h459q82 0 139 57.5t57 139.5t-57 139.5t-139 57.5h-459v-394z" />
<glyph unicode="Q" horiz-adv-x="1409" d="M33 655q0 178 87.5 329t238.5 239t329 88t329 -88t238.5 -239t87.5 -329q0 -207 -118 -376q57 -5 96 -47.5t39 -100.5q0 -61 -43 -104t-105 -43q-58 0 -100 39t-47 96q-166 -119 -377 -119q-133 0 -254.5 52t-209 139.5t-139.5 209t-52 254.5zM295 655q0 -163 115 -278 t278 -115t278 115t115 278t-115 278.5t-278 115.5t-278 -115.5t-115 -278.5z" />
<glyph unicode="R" horiz-adv-x="1310" d="M82 131v1049q0 54 38.5 92.5t92.5 38.5h655q163 0 278.5 -115t115.5 -278q0 -150 -98.5 -261.5t-245.5 -130.5l305 -303q39 -36 39 -92q0 -54 -39 -92.5t-93 -38.5q-56 0 -92 39l-485 485h-209v-393q0 -54 -38.5 -92.5t-92.5 -38.5t-92.5 38.5t-38.5 92.5zM344 786h524 q54 0 92.5 39t38.5 93t-38.5 92.5t-92.5 38.5h-524v-263z" />
<glyph unicode="S" horiz-adv-x="1245" d="M49 131q0 54 38.5 92.5t92.5 38.5h656q54 0 92.5 38.5t38.5 92.5t-38.5 92.5t-92.5 38.5h-394q-163 0 -278 115.5t-115 278.5t115 278t278 115h590q54 0 92.5 -38.5t38.5 -92.5t-38.5 -92.5t-92.5 -38.5h-590q-54 0 -92.5 -38.5t-38.5 -92.5t38.5 -93t92.5 -39h394 q163 0 278 -115t115 -278t-115 -278t-278 -115h-656q-54 0 -92.5 38.5t-38.5 92.5z" />
<glyph unicode="T" horiz-adv-x="1212" d="M16 1180q0 54 38.5 92.5t92.5 38.5h918q54 0 92.5 -38.5t38.5 -92.5t-38.5 -92.5t-92.5 -38.5h-328v-918q0 -54 -38.5 -92.5t-92.5 -38.5t-92.5 38.5t-38.5 92.5v918h-328q-54 0 -92.5 38.5t-38.5 92.5z" />
<glyph unicode="U" horiz-adv-x="1277" d="M49 590v590q0 54 38.5 92.5t92.5 38.5t92.5 -38.5t38.5 -92.5v-590q0 -135 96.5 -231.5t231.5 -96.5t231.5 96.5t96.5 231.5v590q0 54 38.5 92.5t92.5 38.5t92.5 -38.5t38.5 -92.5v-590q0 -160 -79 -296t-215 -215t-296 -79t-296 79t-215 215t-79 296z" />
<glyph unicode="V" horiz-adv-x="1277" d="M49 590v590q0 54 38.5 92.5t92.5 38.5t92.5 -38.5t38.5 -92.5v-537l328 -328l328 328v537q0 54 38.5 92.5t92.5 38.5t92.5 -38.5t38.5 -92.5v-590q0 -53 -39 -92l-459 -459q-39 -39 -92 -39t-92 39l-459 459q-39 39 -39 92z" />
<glyph unicode="W" horiz-adv-x="1605" d="M82 131v1049q0 54 38.5 92.5t92.5 38.5t92.5 -38.5t38.5 -92.5v-734l367 367q36 39 92 39t92 -39l367 -367v734q0 54 38.5 92.5t92.5 38.5t92.5 -38.5t38.5 -92.5v-1049q0 -54 -38.5 -92.5t-92.5 -38.5t-93 39l-497 498l-498 -498q-39 -39 -92 -39q-54 0 -92.5 38.5 t-38.5 92.5z" />
<glyph unicode="X" horiz-adv-x="1376" d="M33 131q0 53 39 92l432 432l-432 432q-39 39 -39 93q0 52 39.5 91.5t91.5 39.5q53 0 92 -39l432 -432l432 432q39 39 92 39q52 0 91.5 -39.5t39.5 -91.5q0 -55 -38 -93l-433 -432l433 -432q38 -41 38 -92q0 -54 -38.5 -92.5t-92.5 -38.5q-53 0 -92 39l-432 432l-432 -432 q-39 -39 -92 -39q-54 0 -92.5 38.5t-38.5 92.5z" />
<glyph unicode="Y" horiz-adv-x="1343" d="M16 1180q0 52 39 91.5t92 39.5q54 0 93 -39l432 -432l432 432q39 39 92 39q52 0 91.5 -39.5t39.5 -91.5q0 -54 -39 -93l-485 -485v-471q0 -54 -38.5 -92.5t-92.5 -38.5t-92.5 38.5t-38.5 92.5v471l-486 485q-39 39 -39 93z" />
<glyph unicode="Z" horiz-adv-x="1376" d="M33 131q0 53 39 92l825 826h-733q-54 0 -92.5 38.5t-38.5 92.5t38.5 92.5t92.5 38.5h1048q54 0 92.5 -38.5t38.5 -92.5q0 -58 -38 -93l-826 -825h733q54 0 92.5 -38.5t38.5 -92.5t-38.5 -92.5t-92.5 -38.5h-1048q-54 0 -92.5 38.5t-38.5 92.5z" />
<glyph unicode="[" horiz-adv-x="622" d="M82 0v1311q0 54 38.5 92.5t92.5 38.5h262q54 0 92.5 -38.5t38.5 -92.5t-38.5 -92.5t-92.5 -38.5h-131v-1049h131q54 0 92.5 -38.5t38.5 -92.5t-38.5 -92.5t-92.5 -38.5h-262q-54 0 -92.5 38.5t-38.5 92.5z" />
<glyph unicode="\" horiz-adv-x="1277" d="M-16 1180q0 52 39 91.5t92 39.5t92 -39l1048 -1049q39 -42 39 -92q0 -54 -38.5 -92.5t-92.5 -38.5q-53 0 -92 39l-1048 1048q-39 39 -39 93z" />
<glyph unicode="]" horiz-adv-x="622" d="M16 0q0 54 38.5 92.5t92.5 38.5h132v1049h-132q-54 0 -92.5 38.5t-38.5 92.5t38.5 92.5t92.5 38.5h263q54 0 92.5 -38.5t38.5 -92.5v-1311q0 -54 -38.5 -92.5t-92.5 -38.5h-263q-54 0 -92.5 38.5t-38.5 92.5z" />
<glyph unicode="^" horiz-adv-x="1015" d="M49 852q0 53 39 92l328 330q34 34 92 37q55 0 92 -37l328 -330q39 -39 39 -92q0 -52 -39.5 -91.5t-91.5 -39.5q-56 0 -93 37l-235 235l-236 -235q-37 -37 -92 -37q-52 0 -91.5 39.5t-39.5 91.5z" />
<glyph unicode="_" d="M49 -262q0 54 38.5 92.5t92.5 38.5h787q54 0 92.5 -38.5t38.5 -92.5t-38.5 -92.5t-92.5 -38.5h-787q-54 0 -92.5 38.5t-38.5 92.5z" />
<glyph unicode="`" horiz-adv-x="425" d="M49 1343q0 41 28.5 70t69.5 29t70 -29l131 -131q29 -29 29 -70t-28.5 -69.5t-69.5 -28.5t-70 29l-131 131q-29 29 -29 69z" />
<glyph unicode="a" d="M33 524q0 142 70 263t191 191.5t263 70.5t263 -70.5t191 -191.5t70 -263q0 -135 -69 -260q39 -17 62.5 -53t23.5 -80q0 -61 -43 -104t-105 -43q-44 0 -80 23.5t-55 62.5q-118 -70 -258 -70q-106 0 -203.5 41.5t-167.5 111.5t-111.5 167.5t-41.5 203.5zM295 524 q0 -109 76.5 -185.5t185.5 -76.5t185.5 76.5t76.5 185.5t-76.5 185.5t-185.5 76.5t-185.5 -76.5t-76.5 -185.5z" />
<glyph unicode="b" horiz-adv-x="1163" d="M63 131q0 44 24 81t63 54q-68 120 -68 258v787q0 54 38.5 92.5t92.5 38.5t92.5 -38.5t38.5 -92.5v-334q122 72 262 72q142 0 263 -70.5t191 -191.5t70 -263q0 -106 -41.5 -203.5t-111.5 -167.5t-167.5 -111.5t-203.5 -41.5q-141 0 -262 70q-17 -39 -53 -62.5t-80 -23.5 q-62 0 -105 43t-43 104zM344 524q0 -109 76.5 -185.5t185.5 -76.5t185.5 76.5t76.5 185.5t-76.5 185.5t-185.5 76.5t-185.5 -76.5t-76.5 -185.5z" />
<glyph unicode="c" horiz-adv-x="999" d="M33 524q0 142 70 263t191 191.5t263 70.5q102 0 199 -39.5t172 -114.5q39 -39 39 -92q0 -54 -39 -92.5t-92 -38.5q-57 0 -93 39q-72 75 -186 75q-109 0 -185.5 -76.5t-76.5 -185.5t76.5 -185.5t185.5 -76.5q107 0 186 76q39 39 93 39q52 0 91.5 -39.5t39.5 -91.5 q0 -53 -39 -92q-75 -75 -172 -114.5t-199 -39.5q-106 0 -203.5 41.5t-167.5 111.5t-111.5 167.5t-41.5 203.5z" />
<glyph unicode="d" horiz-adv-x="1163" d="M33 524q0 142 70 263t191 191.5t263 70.5q137 0 262 -72v334q0 54 38.5 92.5t92.5 38.5t92.5 -38.5t38.5 -92.5v-787q0 -135 -69 -260q39 -17 62.5 -53t23.5 -80q0 -61 -43 -104t-105 -43q-44 0 -80 23.5t-55 62.5q-118 -70 -258 -70q-106 0 -203.5 41.5t-167.5 111.5 t-111.5 167.5t-41.5 203.5zM295 524q0 -109 76.5 -185.5t185.5 -76.5t185.5 76.5t76.5 185.5t-76.5 185.5t-185.5 76.5t-185.5 -76.5t-76.5 -185.5z" />
<glyph unicode="e" horiz-adv-x="1114" d="M33 524q0 142 70 263t191 191.5t263 70.5t263 -70.5t191 -191.5t70 -263q0 -54 -38.5 -92.5t-92.5 -38.5h-620q34 -61 94 -96t133 -35h131q54 0 92.5 -38.5t38.5 -92.5t-38.5 -92.5t-92.5 -38.5h-131q-106 0 -203.5 41.5t-167.5 111.5t-111.5 167.5t-41.5 203.5zM330 655 h454q-34 59 -95 95t-132 36q-72 0 -132.5 -35.5t-94.5 -95.5z" />
<glyph unicode="f" horiz-adv-x="851" d="M16 918q0 54 38.5 92.5t92.5 38.5h99q0 163 115 278t278 115h66q54 0 92.5 -38.5t38.5 -92.5t-38.5 -92.5t-92.5 -38.5h-66q-54 0 -92.5 -38.5t-38.5 -92.5h197q54 0 92.5 -38.5t38.5 -92.5t-38.5 -93t-92.5 -39h-197v-655q0 -54 -38.5 -92.5t-92.5 -38.5t-92.5 38.5 t-38.5 92.5v655h-99q-54 0 -92.5 39t-38.5 93z" />
<glyph unicode="g" horiz-adv-x="1163" d="M33 524q0 142 70 263t191 191.5t263 70.5q134 0 258 -70q19 39 55 62.5t80 23.5q62 0 105 -43t43 -104q0 -44 -23.5 -80.5t-62.5 -55.5q69 -122 69 -258v-393q0 -106 -41.5 -203.5t-111.5 -167.5t-167.5 -111.5t-203.5 -41.5q-102 0 -199 39t-172 114q-39 39 -39 93 q0 52 39.5 91.5t92.5 39.5t92 -39q79 -76 186 -76q91 0 161.5 55.5t92.5 141.5q-122 -66 -254 -66q-106 0 -203.5 41.5t-167.5 111.5t-111.5 167.5t-41.5 203.5zM295 524q0 -109 76.5 -185.5t185.5 -76.5t185.5 76.5t76.5 185.5t-76.5 185.5t-185.5 76.5t-185.5 -76.5 t-76.5 -185.5z" />
<glyph unicode="h" horiz-adv-x="1179" d="M82 131v1180q0 54 38.5 92.5t92.5 38.5t92.5 -38.5t38.5 -92.5v-334q122 72 262 72q142 0 263 -70.5t191 -191.5t70 -263v-393q0 -54 -38.5 -92.5t-92.5 -38.5t-92.5 38.5t-38.5 92.5v393q0 109 -76.5 185.5t-185.5 76.5t-185.5 -76.5t-76.5 -185.5v-393 q0 -54 -38.5 -92.5t-92.5 -38.5t-92.5 38.5t-38.5 92.5z" />
<glyph unicode="i" horiz-adv-x="425" d="M66 1262q0 62 43 104.5t104 42.5t104 -42.5t43 -104.5t-43 -105t-104 -43t-104 43t-43 105zM82 131v787q0 54 38.5 92.5t92.5 38.5t92.5 -38.5t38.5 -92.5v-787q0 -54 -38.5 -92.5t-92.5 -38.5t-92.5 38.5t-38.5 92.5z" />
<glyph unicode="j" horiz-adv-x="425" d="M-180 -262q0 54 38.5 92.5t92.5 38.5t92.5 38.5t38.5 92.5v918q0 54 38.5 92.5t92.5 38.5t92.5 -38.5t38.5 -92.5v-918q0 -163 -115 -278t-278 -115q-54 0 -92.5 38.5t-38.5 92.5zM66 1262q0 62 43 104.5t104 42.5t104 -42.5t43 -104.5t-43 -105t-104 -43t-104 43 t-43 105z" />
<glyph unicode="k" horiz-adv-x="1179" d="M82 131v1180q0 54 38.5 92.5t92.5 38.5t92.5 -38.5t38.5 -92.5v-865l563 564q39 39 92 39q54 0 92.5 -38.5t38.5 -92.5q0 -55 -38 -93l-301 -301l301 -301q38 -35 38 -92q0 -54 -38.5 -92.5t-92.5 -38.5q-56 0 -92 39l-301 301l-301 -301q-36 -39 -92 -39 q-54 0 -92.5 38.5t-38.5 92.5z" />
<glyph unicode="l" horiz-adv-x="425" d="M82 131v1180q0 54 38.5 92.5t92.5 38.5t92.5 -38.5t38.5 -92.5v-1180q0 -54 -38.5 -92.5t-92.5 -38.5t-92.5 38.5t-38.5 92.5z" />
<glyph unicode="m" horiz-adv-x="1703" d="M66 918q0 62 43 104.5t104 42.5q77 0 123 -66q98 50 205 50q189 0 327 -138q63 65 148 101.5t180 36.5q190 0 324.5 -134.5t134.5 -324.5v-459q0 -54 -38.5 -92.5t-92.5 -38.5t-92.5 38.5t-38.5 92.5v459q0 82 -57.5 139t-139.5 57t-139.5 -57t-57.5 -139v-459 q0 -54 -38.5 -92.5t-92.5 -38.5t-92.5 38.5t-38.5 92.5v459q0 82 -57 139t-139 57t-139.5 -57t-57.5 -139v-459q0 -54 -38.5 -92.5t-92.5 -38.5t-92.5 38.5t-38.5 92.5v459q0 113 47 205q-63 44 -63 123z" />
<glyph unicode="n" horiz-adv-x="1179" d="M66 918q0 62 43 104.5t104 42.5q44 0 80 -23.5t53 -62.5q127 70 260 70q142 0 263 -70.5t191 -191.5t70 -263v-393q0 -54 -38.5 -92.5t-92.5 -38.5t-92.5 38.5t-38.5 92.5v393q0 109 -76.5 185.5t-185.5 76.5t-185.5 -76.5t-76.5 -185.5v-393q0 -54 -38.5 -92.5 t-92.5 -38.5t-92.5 38.5t-38.5 92.5v393q0 140 70 258q-39 19 -62.5 55.5t-23.5 80.5z" />
<glyph unicode="o" horiz-adv-x="1114" d="M33 524q0 142 70 263t191 191.5t263 70.5t263 -70.5t191 -191.5t70 -263q0 -106 -41.5 -203.5t-111.5 -167.5t-167.5 -111.5t-203.5 -41.5t-203.5 41.5t-167.5 111.5t-111.5 167.5t-41.5 203.5zM295 524q0 -109 76.5 -185.5t185.5 -76.5t185.5 76.5t76.5 185.5 t-76.5 185.5t-185.5 76.5t-185.5 -76.5t-76.5 -185.5z" />
<glyph unicode="p" horiz-adv-x="1163" d="M66 918q0 62 43 104.5t104 42.5q44 0 80 -23.5t53 -62.5q127 70 260 70q142 0 263 -70.5t191 -191.5t70 -263q0 -106 -41.5 -203.5t-111.5 -167.5t-167.5 -111.5t-203.5 -41.5q-144 0 -262 70v-332q0 -54 -38.5 -92.5t-92.5 -38.5t-92.5 38.5t-38.5 92.5v786 q0 140 70 258q-39 19 -62.5 55.5t-23.5 80.5zM344 524q0 -109 76.5 -185.5t185.5 -76.5t185.5 76.5t76.5 185.5t-76.5 185.5t-185.5 76.5t-185.5 -76.5t-76.5 -185.5z" />
<glyph unicode="q" horiz-adv-x="1163" d="M33 524q0 142 70 263t191 191.5t263 70.5q134 0 258 -70q19 39 55 62.5t80 23.5q62 0 105 -43t43 -104q0 -44 -23.5 -80.5t-62.5 -55.5q69 -122 69 -258v-786q0 -54 -38.5 -92.5t-92.5 -38.5t-92.5 38.5t-38.5 92.5v332q-121 -70 -262 -70q-106 0 -203.5 41.5 t-167.5 111.5t-111.5 167.5t-41.5 203.5zM295 524q0 -109 76.5 -185.5t185.5 -76.5t185.5 76.5t76.5 185.5t-76.5 185.5t-185.5 76.5t-185.5 -76.5t-76.5 -185.5z" />
<glyph unicode="r" horiz-adv-x="753" d="M66 918q0 62 43 104.5t104 42.5q44 0 80 -23.5t53 -62.5q127 70 260 70q54 0 92.5 -38.5t38.5 -92.5t-38.5 -93t-92.5 -39q-109 0 -185.5 -76.5t-76.5 -185.5v-393q0 -54 -38.5 -92.5t-92.5 -38.5t-92.5 38.5t-38.5 92.5v393q0 140 70 258q-39 19 -62.5 55.5t-23.5 80.5z " />
<glyph unicode="s" horiz-adv-x="999" d="M49 131q0 54 38.5 92.5t92.5 38.5h459q28 0 47 19t19 47t-19 46.5t-47 18.5h-262q-135 0 -231.5 96.5t-96.5 231.5t96.5 231.5t231.5 96.5h393q54 0 92.5 -38.5t38.5 -92.5t-38.5 -93t-92.5 -39h-393q-28 0 -47 -18.5t-19 -46.5t19 -47t47 -19h262q135 0 231.5 -96 t96.5 -231t-96.5 -231.5t-231.5 -96.5h-459q-54 0 -92.5 38.5t-38.5 92.5z" />
<glyph unicode="t" horiz-adv-x="851" d="M16 918q0 54 38.5 92.5t92.5 38.5h99v131q0 54 38.5 92.5t92.5 38.5t92.5 -38.5t38.5 -92.5v-131h197q54 0 92.5 -38.5t38.5 -92.5t-38.5 -93t-92.5 -39h-197v-393q0 -54 38.5 -92.5t92.5 -38.5h66q54 0 92.5 -38.5t38.5 -92.5t-38.5 -92.5t-92.5 -38.5h-66 q-163 0 -278 115t-115 278v393h-99q-54 0 -92.5 39t-38.5 93z" />
<glyph unicode="u" horiz-adv-x="1179" d="M49 524v394q0 54 38.5 92.5t92.5 38.5t92.5 -38.5t38.5 -92.5v-394q0 -109 76.5 -185.5t185.5 -76.5t186 76.5t77 185.5v394q0 54 38.5 92.5t92.5 38.5t92.5 -38.5t38.5 -92.5v-394q0 -133 -70 -260q39 -17 62.5 -53t23.5 -80q0 -61 -43 -104t-104 -43q-44 0 -80.5 23.5 t-55.5 62.5q-118 -70 -258 -70q-106 0 -203.5 41.5t-167.5 111.5t-111.5 167.5t-41.5 203.5z" />
<glyph unicode="v" d="M49 524v394q0 54 38.5 92.5t92.5 38.5t92.5 -38.5t38.5 -92.5v-340l262 -263l263 263v340q0 54 38.5 92.5t92.5 38.5t92.5 -38.5t38.5 -92.5v-394q0 -53 -39 -92l-393 -393q-36 -39 -93 -39q-56 0 -92 39l-393 393q-39 39 -39 92z" />
<glyph unicode="w" horiz-adv-x="1671" d="M49 459v459q0 54 38.5 92.5t92.5 38.5t92.5 -38.5t38.5 -92.5v-459q0 -82 57.5 -139.5t139.5 -57.5t139.5 57.5t57.5 139.5v459q0 54 38.5 92.5t92.5 38.5t92.5 -38.5t38.5 -92.5v-459q0 -82 57 -139.5t139 -57.5t139.5 57.5t57.5 139.5v459q0 54 38.5 92.5t92.5 38.5 t92.5 -38.5t38.5 -92.5v-459q0 -125 -61.5 -230.5t-167 -167t-230.5 -61.5q-196 0 -327 137q-134 -137 -328 -137q-190 0 -324.5 134t-134.5 325z" />
<glyph unicode="x" d="M49 131q0 53 39 92l301 301l-301 301q-39 39 -39 93q0 52 39.5 91.5t91.5 39.5q53 0 92 -39l301 -301l301 301q39 39 93 39q53 0 92 -39.5t39 -91.5q0 -54 -39 -93l-301 -301l301 -301q39 -42 39 -92q0 -54 -38.5 -92.5t-92.5 -38.5t-93 39l-301 301l-301 -301 q-39 -39 -92 -39q-54 0 -92.5 38.5t-38.5 92.5z" />
<glyph unicode="y" horiz-adv-x="1179" d="M49 524v394q0 54 38.5 92.5t92.5 38.5t92.5 -38.5t38.5 -92.5v-394q0 -109 76.5 -185.5t185.5 -76.5t186 76.5t77 185.5v394q0 54 38.5 92.5t92.5 38.5t92.5 -38.5t38.5 -92.5v-787q0 -142 -70.5 -263t-191.5 -191t-263 -70q-102 0 -198.5 39t-171.5 114q-39 39 -39 93 q0 53 39 92t92 39t92 -39q79 -76 186 -76q91 0 161.5 55.5t92.5 141.5q-122 -66 -254 -66q-106 0 -203.5 41.5t-167.5 111.5t-111.5 167.5t-41.5 203.5z" />
<glyph unicode="z" horiz-adv-x="1130" d="M49 131q0 55 37 92l553 563h-459q-54 0 -92.5 39t-38.5 93t38.5 92.5t92.5 38.5h770q54 0 92.5 -38.5t38.5 -92.5q0 -56 -37 -93l-552 -563h458q54 0 92.5 -38.5t38.5 -92.5t-38.5 -92.5t-92.5 -38.5h-770q-54 0 -92.5 38.5t-38.5 92.5z" />
<glyph unicode="{" horiz-adv-x="753" d="M16 655q0 61 43 104.5t105 43.5q17 0 49 -8v254q0 163 115 278t278 115q54 0 92.5 -38.5t38.5 -92.5t-38.5 -92.5t-92.5 -38.5t-92.5 -38.5t-38.5 -92.5v-787q0 -54 38.5 -92.5t92.5 -38.5t92.5 -38.5t38.5 -92.5t-38.5 -92.5t-92.5 -38.5q-163 0 -278 115t-115 278v254 q-21 -8 -49 -8q-62 0 -105 43t-43 104z" />
<glyph unicode="|" horiz-adv-x="425" d="M82 -131v1442q0 54 38.5 92.5t92.5 38.5t92.5 -38.5t38.5 -92.5v-1442q0 -54 -38.5 -92.5t-92.5 -38.5t-92.5 38.5t-38.5 92.5z" />
<glyph unicode="}" horiz-adv-x="753" d="M16 0q0 54 38.5 92.5t92.5 38.5t93 38.5t39 92.5v787q0 54 -39 92.5t-93 38.5t-92.5 38.5t-38.5 92.5t38.5 92.5t92.5 38.5q163 0 278.5 -115t115.5 -278v-254q28 8 49 8q61 0 104 -43t43 -105q0 -61 -42.5 -104t-104.5 -43q-30 0 -49 8v-254q0 -163 -115.5 -278 t-278.5 -115q-54 0 -92.5 38.5t-38.5 92.5z" />
<glyph unicode="~" d="M49 524v131q0 135 96.5 231.5t231.5 96.5t231.5 -96.5t96.5 -231.5q0 -28 18.5 -46.5t46.5 -18.5t47 18.5t19 46.5v131q0 54 38.5 93t92.5 39t92.5 -39t38.5 -93v-131q0 -135 -96.5 -231t-231.5 -96t-231.5 96t-96.5 231q0 28 -18.5 47t-46.5 19t-47 -19t-19 -47v-131 q0 -54 -38.5 -92.5t-92.5 -38.5t-92.5 38.5t-38.5 92.5z" />
<glyph unicode="&#xa1;" horiz-adv-x="425" d="M66 1163q0 62 43 105t104 43t104 -43t43 -105q0 -61 -43 -104t-104 -43t-104 43t-43 104zM82 0v786q0 54 38.5 93t92.5 39t92.5 -39t38.5 -93v-786q0 -54 -38.5 -92.5t-92.5 -38.5t-92.5 38.5t-38.5 92.5z" />
<glyph unicode="&#xa2;" horiz-adv-x="999" d="M33 655q0 189 121.5 334.5t304.5 179.5v43q0 40 29 69.5t69 29.5t69 -29.5t29 -69.5v-43q156 -29 273 -143q39 -39 39 -92q0 -54 -39 -92.5t-92 -38.5q-57 0 -93 39q-37 37 -88 57v-487q51 20 88 57q39 39 93 39q52 0 91.5 -39t39.5 -92t-39 -92q-113 -113 -273 -146v-41 q0 -40 -29 -69t-69 -29t-69 29t-29 69v41q-183 36 -304.5 181t-121.5 335zM295 655q0 -82 45.5 -147.5t118.5 -95.5v487q-73 -30 -118.5 -96t-45.5 -148z" />
<glyph unicode="&#xa3;" d="M49 131q0 54 38.5 92.5t92.5 38.5v524q0 142 70.5 263t191.5 191.5t263 70.5q102 0 198.5 -39.5t171.5 -114.5q39 -39 39 -92q0 -54 -39 -92.5t-92 -38.5q-56 0 -92 39q-79 76 -186 76q-109 0 -186 -77t-77 -186h263q54 0 92.5 -38.5t38.5 -92.5t-38.5 -92.5t-92.5 -38.5 h-263v-262h525q54 0 92.5 -38.5t38.5 -92.5t-38.5 -92.5t-92.5 -38.5h-787q-54 0 -92.5 38.5t-38.5 92.5z" />
<glyph unicode="&#xa4;" d="M49 262q0 56 39 92l131 131q-39 80 -39 170t39 170l-131 131q-39 39 -39 93q0 53 39.5 92t91.5 39q53 0 92 -39l131 -131q80 39 170 39t170 -39l131 131q39 39 93 39q53 0 92 -39t39 -92q0 -54 -39 -93l-131 -131q39 -80 39 -170t-39 -170l131 -131q39 -36 39 -92 q0 -54 -38.5 -92.5t-92.5 -38.5q-57 0 -93 39l-131 131q-80 -39 -170 -39t-170 39l-131 -131q-36 -39 -92 -39q-54 0 -92.5 38.5t-38.5 92.5zM442 655q0 -54 38.5 -92.5t92.5 -38.5t93 38.5t39 92.5t-39 92.5t-93 38.5t-92.5 -38.5t-38.5 -92.5z" />
<glyph unicode="&#xa5;" horiz-adv-x="1343" d="M16 1180q0 52 39 91.5t92 39.5q54 0 93 -39l432 -432l432 432q39 39 92 39q52 0 91.5 -39.5t39.5 -91.5q0 -54 -39 -93l-432 -432h176q40 0 69 -29t29 -69t-29 -69t-69 -29h-229v-99h229q40 0 69 -29t29 -69t-29 -69t-69 -29h-229v-33q0 -54 -38.5 -92.5t-92.5 -38.5 t-92.5 38.5t-38.5 92.5v33h-230q-40 0 -69 29t-29 69t29 69t69 29h230v99h-230q-40 0 -69 29t-29 69t29 69t69 29h176l-432 432q-39 39 -39 93z" />
<glyph unicode="&#xa6;" horiz-adv-x="425" d="M82 -131v524q0 54 38.5 92.5t92.5 38.5t92.5 -38.5t38.5 -92.5v-524q0 -54 -38.5 -92.5t-92.5 -38.5t-92.5 38.5t-38.5 92.5zM82 786v525q0 54 38.5 92.5t92.5 38.5t92.5 -38.5t38.5 -92.5v-525q0 -54 -38.5 -92.5t-92.5 -38.5t-92.5 38.5t-38.5 92.5z" />
<glyph unicode="&#xa7;" horiz-adv-x="983" d="M33 655q0 144 104 240q-39 70 -39 154q0 135 96.5 231t231.5 96h262q54 0 92.5 -38.5t38.5 -92.5t-38.5 -92.5t-92.5 -38.5h-262q-28 0 -47 -18.5t-19 -46.5t19 -47t47 -19h197q135 0 231 -96.5t96 -231.5q0 -69 -28 -131.5t-76 -107.5q39 -73 39 -154 q0 -135 -96.5 -231.5t-231.5 -96.5h-262q-54 0 -92.5 39t-38.5 93t38.5 92.5t92.5 38.5h262q28 0 47 18.5t19 46.5t-19 47t-47 19h-197q-135 0 -231 96t-96 231zM295 655q0 -28 18.5 -46.5t46.5 -18.5h263q28 0 46.5 18.5t18.5 46.5t-18.5 47t-46.5 19h-263q-28 0 -46.5 -19 t-18.5 -47z" />
<glyph unicode="&#xa8;" horiz-adv-x="622" d="M16 1245q0 54 38.5 92.5t92.5 38.5t93 -38.5t39 -92.5t-39 -92.5t-93 -38.5t-92.5 38.5t-38.5 92.5zM344 1245q0 54 38.5 92.5t92.5 38.5t92.5 -38.5t38.5 -92.5t-38.5 -92.5t-92.5 -38.5t-92.5 38.5t-38.5 92.5z" />
<glyph unicode="&#xa9;" horiz-adv-x="1376" d="M33 655q0 178 87.5 329t238.5 239t329 88t329 -88t238.5 -239t87.5 -329q0 -133 -52 -254.5t-139.5 -209t-209 -139.5t-254.5 -52t-254.5 52t-209 139.5t-139.5 209t-52 254.5zM229 655q0 -190 134 -324t325 -134t325 134t134 324q0 191 -134.5 325t-324.5 134 t-324.5 -134t-134.5 -325zM360 655q0 135 96.5 231.5t231.5 96.5q139 0 232 -96q28 -28 28 -70q0 -41 -28.5 -69.5t-69.5 -28.5t-70 29q-41 38 -92 38q-54 0 -92.5 -38.5t-38.5 -92.5t38.5 -92.5t92.5 -38.5q50 0 92 39q29 29 70 29t69.5 -28.5t28.5 -69.5q0 -42 -28 -70 q-93 -96 -232 -96q-135 0 -231.5 96t-96.5 231z" />
<glyph unicode="&#xaa;" horiz-adv-x="884" d="M49 918q0 163 115 278t278 115t278.5 -115t115.5 -278q0 -96 -48 -187q34 -11 57 -40.5t23 -67.5q0 -47 -33.5 -81t-80.5 -34q-36 0 -66.5 20.5t-42.5 53.5q-92 -58 -203 -58q-163 0 -278 115.5t-115 278.5zM246 918q0 -82 57 -139.5t139 -57.5t139.5 57.5t57.5 139.5 t-57.5 139t-139.5 57t-139 -57t-57 -139z" />
<glyph unicode="&#xab;" horiz-adv-x="1212" d="M49 524q0 55 37 92l330 328q39 39 92 39q52 0 91.5 -39.5t39.5 -91.5q0 -55 -37 -92l-235 -236l235 -235q34 -37 37 -92q0 -53 -39.5 -92t-91.5 -39q-54 0 -92 38l-330 328q-37 34 -37 92zM573 524q0 55 37 92l330 328q39 39 92 39q52 0 91.5 -39.5t39.5 -91.5 q0 -55 -37 -92l-235 -236l235 -235q34 -37 37 -92q0 -53 -39.5 -92t-91.5 -39q-54 0 -92 38l-330 328q-37 34 -37 92z" />
<glyph unicode="&#xac;" d="M49 655q0 54 38.5 92.5t92.5 38.5h787q54 0 92.5 -38.5t38.5 -92.5v-262q0 -54 -38.5 -92.5t-92.5 -38.5t-92.5 38.5t-38.5 92.5v131h-656q-54 0 -92.5 38.5t-38.5 92.5z" />
<glyph unicode="&#xad;" horiz-adv-x="753" d="M49 655q0 54 38.5 92.5t92.5 38.5h393q54 0 93 -38.5t39 -92.5t-39 -92.5t-93 -38.5h-393q-54 0 -92.5 38.5t-38.5 92.5z" />
<glyph unicode="&#xae;" d="M49 786q0 142 70 263t191 191.5t263 70.5t263 -70.5t191.5 -191.5t70.5 -263t-70.5 -263t-191.5 -191t-263 -70q-106 0 -203.5 41.5t-167.5 111.5t-111.5 167.5t-41.5 203.5zM246 786q0 -135 96 -231t231 -96t231.5 96t96.5 231t-96.5 231.5t-231.5 96.5t-231 -96.5 t-96 -231.5zM410 655q0 -40 29 -69t69 -29t69 29t29 69v131h99q40 0 69 29.5t29 69.5t-29 69t-69 29h-99q-82 0 -139 -57.5t-57 -139.5v-131z" />
<glyph unicode="&#xaf;" horiz-adv-x="753" d="M49 1245q0 40 29 69t69 29h459q40 0 69.5 -29t29.5 -69t-29.5 -69t-69.5 -29h-459q-40 0 -69 29t-29 69z" />
<glyph unicode="&#xb0;" horiz-adv-x="688" d="M49 1016q0 122 86.5 208.5t208.5 86.5t208.5 -86.5t86.5 -208.5t-86.5 -208.5t-208.5 -86.5t-208.5 86.5t-86.5 208.5zM246 1016q0 -40 29 -69t69 -29t69 29t29 69t-29 69t-69 29t-69 -29t-29 -69z" />
<glyph unicode="&#xb1;" d="M49 131q0 54 38.5 92.5t92.5 38.5h787q54 0 92.5 -38.5t38.5 -92.5t-38.5 -92.5t-92.5 -38.5h-787q-54 0 -92.5 38.5t-38.5 92.5zM49 819q0 54 38.5 92.5t92.5 38.5h262v230q0 54 38.5 92.5t92.5 38.5t93 -38.5t39 -92.5v-230h262q54 0 92.5 -38.5t38.5 -92.5 t-38.5 -92.5t-92.5 -38.5h-262v-229q0 -54 -39 -92.5t-93 -38.5t-92.5 38.5t-38.5 92.5v229h-262q-54 0 -92.5 38.5t-38.5 92.5z" />
<glyph unicode="&#xb2;" horiz-adv-x="884" d="M49 623v98q0 121 86.5 208t208.5 87h246q20 0 34.5 14.5t14.5 34.5t-14.5 34.5t-34.5 14.5h-443q-40 0 -69 29t-29 69t29 69.5t69 29.5h443q101 0 173.5 -72.5t72.5 -173.5t-72.5 -173.5t-173.5 -72.5h-246q-40 0 -69 -29t-29 -69h491q40 0 69.5 -29t29.5 -69 t-29.5 -69.5t-69.5 -29.5h-590q-40 0 -69 29.5t-29 69.5z" />
<glyph unicode="&#xb3;" horiz-adv-x="884" d="M49 623q0 40 29 69t69 29h443q20 0 34.5 14.5t14.5 34.5t-14.5 34.5t-34.5 14.5h-311q-40 0 -69.5 29.5t-29.5 69.5t29.5 69t69.5 29h311q20 0 34.5 14.5t14.5 34.5t-14.5 34.5t-34.5 14.5h-443q-40 0 -69 29t-29 69t29 69.5t69 29.5h443q101 0 173.5 -72.5t72.5 -173.5 q0 -81 -50 -147q50 -66 50 -148q0 -101 -72.5 -173.5t-173.5 -72.5h-443q-40 0 -69 29.5t-29 69.5z" />
<glyph unicode="&#xb4;" horiz-adv-x="425" d="M49 1212q0 41 29 70l131 131q29 29 70 29t69.5 -29t28.5 -70q0 -40 -29 -69l-131 -131q-29 -29 -70 -29t-69.5 28.5t-28.5 69.5z" />
<glyph unicode="&#xb5;" horiz-adv-x="1212" d="M82 -262v1180q0 54 38.5 92.5t92.5 38.5t92.5 -38.5t38.5 -92.5v-394q0 -109 76.5 -185.5t185.5 -76.5t185.5 76.5t76.5 185.5v394q0 54 38.5 92.5t92.5 38.5t92.5 -38.5t38.5 -92.5v-787q0 -54 -38.5 -92.5t-92.5 -38.5q-40 0 -72.5 21.5t-47.5 56.5q-127 -78 -273 -78 q-144 0 -262 70v-332q0 -54 -38.5 -92.5t-92.5 -38.5t-92.5 38.5t-38.5 92.5z" />
<glyph unicode="&#xb6;" horiz-adv-x="1081" d="M49 852q0 190 134.5 324.5t324.5 134.5h426q54 0 92.5 -38.5t38.5 -92.5t-38.5 -92.5t-92.5 -38.5h-98v-1049q0 -163 -115.5 -278t-278.5 -115q-54 0 -92.5 38.5t-38.5 92.5t38.5 92.5t92.5 38.5t92.5 38.5t38.5 92.5v393h-65q-190 0 -324.5 134.5t-134.5 324.5z" />
<glyph unicode="&#xb7;" horiz-adv-x="360" d="M33 655q0 62 43 105t104 43q62 0 105 -43.5t43 -104.5t-43 -104t-105 -43t-104.5 43t-42.5 104z" />
<glyph unicode="&#xb8;" horiz-adv-x="622" d="M41 -238q0 41 28.5 70t69.5 29t70 -29t70 -29q40 0 69 29.5t29 69.5t-29 69t-69 29t-69.5 29t-29.5 69t29.5 69.5t69.5 29.5q121 0 207.5 -86.5t86.5 -208.5t-86.5 -208.5t-207.5 -86.5q-123 0 -209 86q-29 29 -29 69z" />
<glyph unicode="&#xb9;" horiz-adv-x="655" d="M49 623q0 40 29 69t69 29h99v250l-27 -27q-29 -26 -72 -26q-40 0 -69 29t-29 69t29 69l198 199q27 27 68 27q40 0 69 -29.5t29 -69.5v-491h99q40 0 69 -29t29 -69t-29 -69.5t-69 -29.5h-394q-40 0 -69 29.5t-29 69.5z" />
<glyph unicode="&#xba;" horiz-adv-x="884" d="M49 918q0 163 115 278t278 115t278.5 -115t115.5 -278t-115.5 -278.5t-278.5 -115.5t-278 115.5t-115 278.5zM246 918q0 -82 57 -139.5t139 -57.5t139.5 57.5t57.5 139.5t-57.5 139t-139.5 57t-139 -57t-57 -139z" />
<glyph unicode="&#xbb;" horiz-adv-x="1212" d="M49 197q0 55 37 92l236 235l-236 236q-37 34 -37 92q0 52 39.5 91.5t91.5 39.5q53 0 92 -39l330 -328q33 -31 37 -92q0 -55 -37 -92l-330 -328q-38 -38 -92 -38q-52 0 -91.5 39t-39.5 92zM573 197q0 55 37 92l236 235l-236 236q-37 34 -37 92q0 52 39.5 91.5t92.5 39.5 t92 -39l329 -328q37 -34 37 -92q0 -55 -37 -92l-329 -328q-38 -38 -92 -38q-53 0 -92.5 39.5t-39.5 91.5z" />
<glyph unicode="&#xbc;" horiz-adv-x="1998" d="M49 623q0 40 29 69t69 29h99v250l-27 -27q-29 -26 -72 -26q-40 0 -69 29t-29 69t29 69l198 199q27 27 68 27q40 0 69 -29.5t29 -69.5v-491h99q40 0 69 -29t29 -69t-29 -69.5t-69 -29.5h-394q-40 0 -69 29.5t-29 69.5zM311 98q0 41 29 70l1114 1114q29 29 70 29t69.5 -29 t28.5 -70q0 -40 -29 -69l-1114 -1114q-29 -29 -69 -29q-41 0 -70 28.5t-29 69.5zM1294 393v295q0 40 29.5 69t69.5 29t69 -29t29 -69v-196h262v196q0 40 29 69t69 29t69.5 -29t29.5 -69v-590q0 -40 -29.5 -69t-69.5 -29t-69 29t-29 69v197h-360q-40 0 -69.5 29t-29.5 69z " />
<glyph unicode="&#xbd;" horiz-adv-x="1998" d="M49 623q0 40 29 69t69 29h99v250l-27 -27q-29 -26 -72 -26q-40 0 -69 29t-29 69t29 69l198 199q27 27 68 27q40 0 69 -29.5t29 -69.5v-491h99q40 0 69 -29t29 -69t-29 -69.5t-69 -29.5h-394q-40 0 -69 29.5t-29 69.5zM311 98q0 41 29 70l1114 1114q29 29 70 29t69.5 -29 t28.5 -70q0 -40 -29 -69l-1114 -1114q-29 -29 -69 -29q-41 0 -70 28.5t-29 69.5zM1294 98v99q0 121 87 208t208 87h115q20 0 34.5 14.5t14.5 34.5t-14.5 34.5t-34.5 14.5h-311q-40 0 -69.5 29t-29.5 69t29.5 69t69.5 29h311q101 0 173.5 -72t72.5 -173t-72.5 -173.5 t-173.5 -72.5h-115q-40 0 -69 -29t-29 -69h360q40 0 69.5 -29.5t29.5 -69.5t-29.5 -69t-69.5 -29h-458q-40 0 -69.5 29t-29.5 69z" />
<glyph unicode="&#xbe;" horiz-adv-x="1998" d="M49 623q0 40 29 69t69 29h312q20 0 34.5 14.5t14.5 34.5t-14.5 34.5t-34.5 14.5h-180q-40 0 -69.5 29.5t-29.5 69.5t29.5 69t69.5 29h180q20 0 34.5 14.5t14.5 34.5t-14.5 34.5t-34.5 14.5h-312q-40 0 -69 29t-29 69t29 69.5t69 29.5h312q101 0 173.5 -72.5t72.5 -173.5 q0 -81 -50 -147q50 -66 50 -148q0 -101 -72.5 -173.5t-173.5 -72.5h-312q-40 0 -69 29.5t-29 69.5zM311 98q0 41 29 70l1114 1114q29 29 70 29t69.5 -29t28.5 -70q0 -40 -29 -69l-1114 -1114q-29 -29 -69 -29q-41 0 -70 28.5t-29 69.5zM1294 393v295q0 40 29.5 69t69.5 29 t69 -29t29 -69v-196h262v196q0 40 29 69t69 29t69.5 -29t29.5 -69v-590q0 -40 -29.5 -69t-69.5 -29t-69 29t-29 69v197h-360q-40 0 -69.5 29t-29.5 69z" />
<glyph unicode="&#xbf;" horiz-adv-x="1130" d="M49 393q0 142 70 263t191 191.5t263 70.5q54 0 93 -39t39 -93t-39 -92.5t-93 -38.5q-109 0 -185.5 -76.5t-76.5 -185.5t76.5 -185.5t185.5 -76.5t186 76.5t77 185.5q0 54 38.5 92.5t92.5 38.5t92.5 -38.5t38.5 -92.5q0 -142 -70.5 -263t-191.5 -191t-263 -70 q-106 0 -203.5 41.5t-167.5 111.5t-111.5 167.5t-41.5 203.5zM426 1163q0 62 43 105t104 43t104.5 -43.5t43.5 -104.5t-43 -104t-105 -43q-61 0 -104 43t-43 104z" />
<glyph unicode="&#xc0;" horiz-adv-x="1343" d="M82 131v590q0 160 79 296t215 215t296 79t296 -79t215 -215t79 -296v-590q0 -54 -39 -92.5t-93 -38.5t-92.5 38.5t-38.5 92.5v262h-655v-262q0 -54 -38.5 -92.5t-92.5 -38.5t-92.5 38.5t-38.5 92.5zM344 655h655v66q0 135 -96 231.5t-231 96.5t-231.5 -96.5t-96.5 -231.5 v-66zM475 1606q0 41 28.5 69.5t69.5 28.5t70 -29l131 -131q29 -29 29 -69q0 -41 -28.5 -70t-69.5 -29t-70 29l-131 131q-29 29 -29 70z" />
<glyph unicode="&#xc1;" horiz-adv-x="1343" d="M82 131v590q0 160 79 296t215 215t296 79t296 -79t215 -215t79 -296v-590q0 -54 -39 -92.5t-93 -38.5t-92.5 38.5t-38.5 92.5v262h-655v-262q0 -54 -38.5 -92.5t-92.5 -38.5t-92.5 38.5t-38.5 92.5zM344 655h655v66q0 135 -96 231.5t-231 96.5t-231.5 -96.5t-96.5 -231.5 v-66zM541 1475q0 41 28 69l131 131q29 29 70 29t69.5 -28.5t28.5 -69.5q0 -42 -28 -70l-131 -131q-29 -29 -70 -29t-69.5 29t-28.5 70z" />
<glyph unicode="&#xc2;" horiz-adv-x="1343" d="M82 131v590q0 160 79 296t215 215t296 79t296 -79t215 -215t79 -296v-590q0 -54 -39 -92.5t-93 -38.5t-92.5 38.5t-38.5 92.5v262h-655v-262q0 -54 -38.5 -92.5t-92.5 -38.5t-92.5 38.5t-38.5 92.5zM344 655h655v66q0 135 -96 231.5t-231 96.5t-231.5 -96.5t-96.5 -231.5 v-66zM442 1475q0 40 29 69l131 131q29 29 70 29q40 0 69 -29l131 -131q29 -29 29 -69q0 -41 -28.5 -70t-69.5 -29t-70 29l-61 61l-62 -61q-29 -29 -69 -29q-41 0 -70 29t-29 70z" />
<glyph unicode="&#xc3;" horiz-adv-x="1343" d="M82 131v590q0 160 79 296t215 215t296 79t296 -79t215 -215t79 -296v-590q0 -54 -39 -92.5t-93 -38.5t-92.5 38.5t-38.5 92.5v262h-655v-262q0 -54 -38.5 -92.5t-92.5 -38.5t-92.5 38.5t-38.5 92.5zM344 655h655v66q0 135 -96 231.5t-231 96.5t-231.5 -96.5t-96.5 -231.5 v-66zM344 1475q0 40 29 69q94 94 213 94q40 0 97 -32.5t75 -32.5q24 0 38 8t35 29q28 28 70 28q41 0 69.5 -28.5t28.5 -69.5q0 -42 -28 -70q-94 -94 -213 -94q-40 0 -97 33t-75 33q-24 0 -38.5 -8t-35.5 -29q-29 -29 -70 -29t-69.5 29t-28.5 70z" />
<glyph unicode="&#xc4;" horiz-adv-x="1343" d="M82 131v590q0 160 79 296t215 215t296 79t296 -79t215 -215t79 -296v-590q0 -54 -39 -92.5t-93 -38.5t-92.5 38.5t-38.5 92.5v262h-655v-262q0 -54 -38.5 -92.5t-92.5 -38.5t-92.5 38.5t-38.5 92.5zM344 655h655v66q0 135 -96 231.5t-231 96.5t-231.5 -96.5t-96.5 -231.5 v-66zM377 1507q0 54 38.5 92.5t92.5 38.5t92.5 -38.5t38.5 -92.5t-38.5 -92.5t-92.5 -38.5t-92.5 38.5t-38.5 92.5zM705 1507q0 54 38.5 92.5t92.5 38.5t92.5 -38.5t38.5 -92.5t-38.5 -92.5t-92.5 -38.5t-92.5 38.5t-38.5 92.5z" />
<glyph unicode="&#xc5;" horiz-adv-x="1343" d="M82 131v590q0 178 96.5 323.5t253.5 215.5q-47 68 -47 157q0 119 84.5 203t202.5 84t202 -84t84 -203q0 -84 -47 -157q158 -70 254.5 -216t96.5 -323v-590q0 -54 -39 -92.5t-93 -38.5t-92.5 38.5t-38.5 92.5v262h-655v-262q0 -54 -38.5 -92.5t-92.5 -38.5t-92.5 38.5 t-38.5 92.5zM344 655h655v66q0 135 -96 231.5t-231 96.5t-231.5 -96.5t-96.5 -231.5v-66zM565 1417q0 -44 31.5 -75t75.5 -31t75 31t31 75t-31 75.5t-75 31.5t-75.5 -31.5t-31.5 -75.5z" />
<glyph unicode="&#xc6;" horiz-adv-x="1802" d="M82 131v590q0 160 79 296t215 215t296 79h983q54 0 92.5 -38.5t38.5 -92.5t-38.5 -92.5t-92.5 -38.5h-557v-263h426q54 0 92.5 -38.5t38.5 -92.5t-38.5 -92.5t-92.5 -38.5h-426v-262h557q54 0 92.5 -38.5t38.5 -92.5t-38.5 -92.5t-92.5 -38.5h-688q-54 0 -92.5 38.5 t-38.5 92.5v262h-492v-262q0 -54 -38.5 -92.5t-92.5 -38.5t-92.5 38.5t-38.5 92.5zM344 655h492v394h-164q-135 0 -231.5 -96.5t-96.5 -231.5v-66z" />
<glyph unicode="&#xc7;" horiz-adv-x="1212" d="M33 655q0 178 87.5 329t238.5 239t329 88q127 0 247 -49.5t216 -143.5q39 -39 39 -92q0 -54 -39 -92.5t-92 -38.5q-56 0 -92 39q-118 115 -279 115q-163 0 -278 -115.5t-115 -278.5t115 -278t278 -115q164 0 279 115q39 39 92 39t92 -39t39 -92t-39 -92 q-96 -96 -209 -142q41 -68 41 -149q0 -122 -86.5 -208.5t-208.5 -86.5q-123 0 -209 86q-28 28 -28 69t28.5 70t69.5 29q40 0 69 -29t70 -29q40 0 69 29.5t29 69.5t-29 69t-69 29q-133 0 -254.5 52t-209 139.5t-139.5 209t-52 254.5z" />
<glyph unicode="&#xc8;" d="M82 131v1049q0 54 38.5 92.5t92.5 38.5h786q54 0 92.5 -38.5t38.5 -92.5t-38.5 -92.5t-92.5 -38.5h-655v-263h524q54 0 92.5 -38.5t38.5 -92.5t-38.5 -92.5t-92.5 -38.5h-524v-262h655q54 0 92.5 -38.5t38.5 -92.5t-38.5 -92.5t-92.5 -38.5h-786q-54 0 -92.5 38.5 t-38.5 92.5zM442 1606q0 41 29 69.5t70 28.5q40 0 69 -29l131 -131q29 -29 29 -69q0 -41 -28.5 -70t-69.5 -29t-70 29l-131 131q-29 29 -29 70z" />
<glyph unicode="&#xc9;" d="M82 131v1049q0 54 38.5 92.5t92.5 38.5h786q54 0 92.5 -38.5t38.5 -92.5t-38.5 -92.5t-92.5 -38.5h-655v-263h524q54 0 92.5 -38.5t38.5 -92.5t-38.5 -92.5t-92.5 -38.5h-524v-262h655q54 0 92.5 -38.5t38.5 -92.5t-38.5 -92.5t-92.5 -38.5h-786q-54 0 -92.5 38.5 t-38.5 92.5zM442 1475q0 40 29 69l131 131q29 29 70 29t69.5 -28.5t28.5 -69.5t-29 -70l-131 -131q-29 -29 -69 -29q-41 0 -70 29t-29 70z" />
<glyph unicode="&#xca;" d="M82 131v1049q0 54 38.5 92.5t92.5 38.5h786q54 0 92.5 -38.5t38.5 -92.5t-38.5 -92.5t-92.5 -38.5h-655v-263h524q54 0 92.5 -38.5t38.5 -92.5t-38.5 -92.5t-92.5 -38.5h-524v-262h655q54 0 92.5 -38.5t38.5 -92.5t-38.5 -92.5t-92.5 -38.5h-786q-54 0 -92.5 38.5 t-38.5 92.5zM377 1475q0 40 29 69l131 131q29 29 69 29q41 0 70 -29l131 -131q29 -29 29 -69q0 -41 -29 -70t-70 -29q-40 0 -69 29l-62 61l-61 -61q-29 -29 -70 -29t-69.5 29t-28.5 70z" />
<glyph unicode="&#xcb;" d="M82 131v1049q0 54 38.5 92.5t92.5 38.5h786q54 0 92.5 -38.5t38.5 -92.5t-38.5 -92.5t-92.5 -38.5h-655v-263h524q54 0 92.5 -38.5t38.5 -92.5t-38.5 -92.5t-92.5 -38.5h-524v-262h655q54 0 92.5 -38.5t38.5 -92.5t-38.5 -92.5t-92.5 -38.5h-786q-54 0 -92.5 38.5 t-38.5 92.5zM311 1507q0 54 38.5 92.5t92.5 38.5t92.5 -38.5t38.5 -92.5t-38.5 -92.5t-92.5 -38.5t-92.5 38.5t-38.5 92.5zM639 1507q0 54 38.5 92.5t92.5 38.5t92.5 -38.5t38.5 -92.5t-38.5 -92.5t-92.5 -38.5t-92.5 38.5t-38.5 92.5z" />
<glyph unicode="&#xcc;" horiz-adv-x="819" d="M16 131q0 54 38.5 92.5t92.5 38.5h132v787h-132q-54 0 -92.5 38.5t-38.5 92.5t38.5 92.5t92.5 38.5h525q54 0 92.5 -38.5t38.5 -92.5t-38.5 -92.5t-92.5 -38.5h-131v-787h131q54 0 92.5 -38.5t38.5 -92.5t-38.5 -92.5t-92.5 -38.5h-525q-54 0 -92.5 38.5t-38.5 92.5z M213 1606q0 41 28.5 69.5t69.5 28.5t70 -29l131 -131q29 -29 29 -69q0 -41 -29 -70t-70 -29q-40 0 -69 29l-131 131q-29 29 -29 70z" />
<glyph unicode="&#xcd;" horiz-adv-x="819" d="M16 131q0 54 38.5 92.5t92.5 38.5h132v787h-132q-54 0 -92.5 38.5t-38.5 92.5t38.5 92.5t92.5 38.5h525q54 0 92.5 -38.5t38.5 -92.5t-38.5 -92.5t-92.5 -38.5h-131v-787h131q54 0 92.5 -38.5t38.5 -92.5t-38.5 -92.5t-92.5 -38.5h-525q-54 0 -92.5 38.5t-38.5 92.5z M279 1475q0 41 28 69l131 131q29 29 70 29t69.5 -28.5t28.5 -69.5q0 -42 -28 -70l-132 -131q-29 -29 -69 -29q-41 0 -69.5 29t-28.5 70z" />
<glyph unicode="&#xce;" horiz-adv-x="819" d="M16 131q0 54 38.5 92.5t92.5 38.5h132v787h-132q-54 0 -92.5 38.5t-38.5 92.5t38.5 92.5t92.5 38.5h525q54 0 92.5 -38.5t38.5 -92.5t-38.5 -92.5t-92.5 -38.5h-131v-787h131q54 0 92.5 -38.5t38.5 -92.5t-38.5 -92.5t-92.5 -38.5h-525q-54 0 -92.5 38.5t-38.5 92.5z M180 1475q0 40 29 69l131 131q29 29 70 29q40 0 69 -29l131 -131q29 -29 29 -69q0 -41 -28.5 -70t-69.5 -29t-70 29l-61 61l-62 -61q-29 -29 -69 -29q-41 0 -70 29t-29 70z" />
<glyph unicode="&#xcf;" horiz-adv-x="819" d="M16 131q0 54 38.5 92.5t92.5 38.5h132v787h-132q-54 0 -92.5 38.5t-38.5 92.5t38.5 92.5t92.5 38.5h525q54 0 92.5 -38.5t38.5 -92.5t-38.5 -92.5t-92.5 -38.5h-131v-787h131q54 0 92.5 -38.5t38.5 -92.5t-38.5 -92.5t-92.5 -38.5h-525q-54 0 -92.5 38.5t-38.5 92.5z M115 1507q0 54 38.5 92.5t92.5 38.5t92.5 -38.5t38.5 -92.5t-38.5 -92.5t-92.5 -38.5t-92.5 38.5t-38.5 92.5zM442 1507q0 54 38.5 92.5t92.5 38.5t93 -38.5t39 -92.5t-39 -92.5t-93 -38.5t-92.5 38.5t-38.5 92.5z" />
<glyph unicode="&#xd0;" horiz-adv-x="1392" d="M16 655q0 54 38.5 92.5t92.5 38.5h33v394q0 54 38.5 92.5t92.5 38.5h394q178 0 329 -88t238.5 -239t87.5 -329q0 -133 -52 -254.5t-139.5 -209t-209 -139.5t-254.5 -52h-394q-54 0 -92.5 38.5t-38.5 92.5v393h-33q-54 0 -92.5 38.5t-38.5 92.5zM442 262h263 q163 0 278 115t115 278t-115 278.5t-278 115.5h-263v-263h99q54 0 92.5 -38.5t38.5 -92.5t-38.5 -92.5t-92.5 -38.5h-99v-262z" />
<glyph unicode="&#xd1;" horiz-adv-x="1474" d="M82 131v1049q0 54 38.5 92.5t92.5 38.5q53 0 92 -39l825 -826v734q0 54 39 92.5t93 38.5t92.5 -38.5t38.5 -92.5v-1049q0 -54 -38.5 -92.5t-92.5 -38.5q-57 0 -93 39l-825 825v-733q0 -54 -38.5 -92.5t-92.5 -38.5t-92.5 38.5t-38.5 92.5zM410 1475q0 41 28 69 q94 94 213 94q40 0 97 -32.5t75 -32.5q24 0 38.5 8t35.5 29q28 28 70 28q41 0 69.5 -28.5t28.5 -69.5t-29 -70q-94 -94 -213 -94q-40 0 -97 33t-75 33q-24 0 -38 -8t-35 -29q-29 -29 -70 -29t-69.5 29t-28.5 70z" />
<glyph unicode="&#xd2;" horiz-adv-x="1376" d="M33 655q0 178 87.5 329t238.5 239t329 88t329 -88t238.5 -239t87.5 -329q0 -133 -52 -254.5t-139.5 -209t-209 -139.5t-254.5 -52t-254.5 52t-209 139.5t-139.5 209t-52 254.5zM295 655q0 -163 115 -278t278 -115t278 115t115 278t-115 278.5t-278 115.5t-278 -115.5 t-115 -278.5zM492 1606q0 41 28.5 69.5t69.5 28.5q40 0 69 -29l132 -131q28 -28 28 -69t-28.5 -70t-69.5 -29t-70 29l-131 131q-28 28 -28 70z" />
<glyph unicode="&#xd3;" horiz-adv-x="1376" d="M33 655q0 178 87.5 329t238.5 239t329 88t329 -88t238.5 -239t87.5 -329q0 -133 -52 -254.5t-139.5 -209t-209 -139.5t-254.5 -52t-254.5 52t-209 139.5t-139.5 209t-52 254.5zM295 655q0 -163 115 -278t278 -115t278 115t115 278t-115 278.5t-278 115.5t-278 -115.5 t-115 -278.5zM557 1475q0 40 29 69l131 131q29 29 69 29q41 0 70 -28.5t29 -69.5t-29 -70l-131 -131q-29 -29 -70 -29t-69.5 29t-28.5 70z" />
<glyph unicode="&#xd4;" horiz-adv-x="1376" d="M33 655q0 178 87.5 329t238.5 239t329 88t329 -88t238.5 -239t87.5 -329q0 -133 -52 -254.5t-139.5 -209t-209 -139.5t-254.5 -52t-254.5 52t-209 139.5t-139.5 209t-52 254.5zM295 655q0 -163 115 -278t278 -115t278 115t115 278t-115 278.5t-278 115.5t-278 -115.5 t-115 -278.5zM459 1475q0 41 28 69l131 131q29 29 70 29t70 -29l131 -131q29 -29 29 -69q0 -41 -29 -70t-70 -29q-40 0 -69 29l-62 61l-61 -61q-29 -29 -70 -29t-69.5 29t-28.5 70z" />
<glyph unicode="&#xd5;" horiz-adv-x="1376" d="M33 655q0 178 87.5 329t238.5 239t329 88t329 -88t238.5 -239t87.5 -329q0 -133 -52 -254.5t-139.5 -209t-209 -139.5t-254.5 -52t-254.5 52t-209 139.5t-139.5 209t-52 254.5zM295 655q0 -163 115 -278t278 -115t278 115t115 278t-115 278.5t-278 115.5t-278 -115.5 t-115 -278.5zM360 1475q0 40 29 69q94 94 213 94q40 0 97 -32.5t75 -32.5q24 0 38.5 8t35.5 29q28 28 70 28q41 0 69.5 -28.5t28.5 -69.5t-29 -70q-94 -94 -213 -94q-40 0 -97 33t-75 33q-24 0 -38.5 -8t-35.5 -29q-29 -29 -69 -29q-41 0 -70 29t-29 70z" />
<glyph unicode="&#xd6;" horiz-adv-x="1376" d="M33 655q0 178 87.5 329t238.5 239t329 88t329 -88t238.5 -239t87.5 -329q0 -133 -52 -254.5t-139.5 -209t-209 -139.5t-254.5 -52t-254.5 52t-209 139.5t-139.5 209t-52 254.5zM295 655q0 -163 115 -278t278 -115t278 115t115 278t-115 278.5t-278 115.5t-278 -115.5 t-115 -278.5zM393 1507q0 54 38.5 92.5t92.5 38.5t92.5 -38.5t38.5 -92.5t-38.5 -92.5t-92.5 -38.5t-92.5 38.5t-38.5 92.5zM721 1507q0 54 38.5 92.5t92.5 38.5t92.5 -38.5t38.5 -92.5t-38.5 -92.5t-92.5 -38.5t-92.5 38.5t-38.5 92.5z" />
<glyph unicode="&#xd7;" d="M49 262q0 53 39 92l301 301l-301 301q-39 39 -39 93q0 53 39.5 92t91.5 39q53 0 92 -39l301 -301l301 301q39 39 93 39q53 0 92 -39t39 -92q0 -54 -39 -93l-301 -301l301 -301q39 -42 39 -92q0 -54 -38.5 -92.5t-92.5 -38.5t-93 39l-301 301l-301 -301q-39 -39 -92 -39 q-54 0 -92.5 38.5t-38.5 92.5z" />
<glyph unicode="&#xd8;" horiz-adv-x="1409" d="M49 115q0 49 33 82l84 84q-117 168 -117 374q0 178 88 329t239 239t329 88q206 0 374 -117l84 84q33 33 82 33q47 0 81 -34t34 -81q0 -49 -33 -82l-84 -84q117 -168 117 -375q0 -133 -52 -254.5t-139.5 -209t-209 -139.5t-254.5 -52q-207 0 -375 117l-84 -84 q-33 -33 -82 -33q-47 0 -81 34t-34 81zM311 655q0 -104 43 -186l533 532q-82 48 -182 48q-163 0 -278.5 -115.5t-115.5 -278.5zM518 305q82 -43 187 -43q163 0 278 115t115 278q0 103 -47 183z" />
<glyph unicode="&#xd9;" horiz-adv-x="1277" d="M49 590v590q0 54 38.5 92.5t92.5 38.5t92.5 -38.5t38.5 -92.5v-590q0 -135 96.5 -231.5t231.5 -96.5t231.5 96.5t96.5 231.5v590q0 54 38.5 92.5t92.5 38.5t92.5 -38.5t38.5 -92.5v-590q0 -160 -79 -296t-215 -215t-296 -79t-296 79t-215 215t-79 296zM442 1606 q0 41 29 69.5t70 28.5q40 0 69 -29l131 -131q29 -29 29 -69q0 -41 -28.5 -70t-69.5 -29t-70 29l-131 131q-29 29 -29 70z" />
<glyph unicode="&#xda;" horiz-adv-x="1277" d="M49 590v590q0 54 38.5 92.5t92.5 38.5t92.5 -38.5t38.5 -92.5v-590q0 -135 96.5 -231.5t231.5 -96.5t231.5 96.5t96.5 231.5v590q0 54 38.5 92.5t92.5 38.5t92.5 -38.5t38.5 -92.5v-590q0 -160 -79 -296t-215 -215t-296 -79t-296 79t-215 215t-79 296zM508 1475 q0 40 29 69l131 131q29 29 69 29q41 0 70 -28.5t29 -69.5t-29 -70l-131 -131q-29 -29 -70 -29t-69.5 29t-28.5 70z" />
<glyph unicode="&#xdb;" horiz-adv-x="1277" d="M49 590v590q0 54 38.5 92.5t92.5 38.5t92.5 -38.5t38.5 -92.5v-590q0 -135 96.5 -231.5t231.5 -96.5t231.5 96.5t96.5 231.5v590q0 54 38.5 92.5t92.5 38.5t92.5 -38.5t38.5 -92.5v-590q0 -160 -79 -296t-215 -215t-296 -79t-296 79t-215 215t-79 296zM410 1475 q0 41 28 69l131 131q29 29 70 29t70 -29l131 -131q28 -28 28 -69t-28.5 -70t-69.5 -29t-70 29l-61 61l-61 -61q-29 -29 -70 -29t-69.5 29t-28.5 70z" />
<glyph unicode="&#xdc;" horiz-adv-x="1277" d="M49 590v590q0 54 38.5 92.5t92.5 38.5t92.5 -38.5t38.5 -92.5v-590q0 -135 96.5 -231.5t231.5 -96.5t231.5 96.5t96.5 231.5v590q0 54 38.5 92.5t92.5 38.5t92.5 -38.5t38.5 -92.5v-590q0 -160 -79 -296t-215 -215t-296 -79t-296 79t-215 215t-79 296zM344 1507 q0 54 38.5 92.5t92.5 38.5t92.5 -38.5t38.5 -92.5t-38.5 -92.5t-92.5 -38.5t-92.5 38.5t-38.5 92.5zM672 1507q0 54 38.5 92.5t92.5 38.5t92.5 -38.5t38.5 -92.5t-38.5 -92.5t-92.5 -38.5t-92.5 38.5t-38.5 92.5z" />
<glyph unicode="&#xdd;" horiz-adv-x="1343" d="M16 1180q0 52 39 91.5t92 39.5q54 0 93 -39l432 -432l432 432q39 39 92 39q52 0 91.5 -39.5t39.5 -91.5q0 -54 -39 -93l-485 -485v-471q0 -54 -38.5 -92.5t-92.5 -38.5t-92.5 38.5t-38.5 92.5v471l-486 485q-39 39 -39 93zM541 1475q0 41 28 69l131 131q29 29 70 29 t69.5 -28.5t28.5 -69.5q0 -42 -28 -70l-131 -131q-29 -29 -70 -29t-69.5 29t-28.5 70z" />
<glyph unicode="&#xde;" horiz-adv-x="1130" d="M82 131v1049q0 54 38.5 92.5t92.5 38.5t92.5 -38.5t38.5 -92.5v-66h295q125 0 230.5 -61.5t167 -167t61.5 -230.5q0 -190 -134 -324t-325 -134h-295v-66q0 -54 -38.5 -92.5t-92.5 -38.5t-92.5 38.5t-38.5 92.5zM344 459h295q82 0 139.5 57t57.5 139t-57.5 139.5 t-139.5 57.5h-295v-393z" />
<glyph unicode="&#xdf;" horiz-adv-x="1179" d="M82 131v787q0 106 41.5 203.5t111.5 167.5t167.5 111.5t203.5 41.5h164q135 0 231.5 -96.5t96.5 -231.5t-96.5 -231.5t-231.5 -96.5q-28 0 -46.5 -18.5t-18.5 -46.5t18.5 -47t46.5 -19h66q135 0 231 -96t96 -231t-96 -231.5t-231 -96.5h-263q-54 0 -92.5 38.5t-38.5 92.5 t38.5 92.5t92.5 38.5h263q28 0 46.5 19t18.5 47t-18.5 46.5t-46.5 18.5h-66q-135 0 -231.5 96.5t-96.5 231.5t96.5 231.5t231.5 96.5q28 0 47 18.5t19 46.5t-19 47t-47 19h-164q-109 0 -185.5 -76.5t-76.5 -185.5v-787q0 -54 -38.5 -92.5t-92.5 -38.5t-92.5 38.5t-38.5 92.5 z" />
<glyph unicode="&#xe0;" d="M33 524q0 142 70 263t191 191.5t263 70.5t263 -70.5t191 -191.5t70 -263q0 -135 -69 -260q39 -17 62.5 -53t23.5 -80q0 -61 -43 -104t-105 -43q-44 0 -80 23.5t-55 62.5q-118 -70 -258 -70q-106 0 -203.5 41.5t-167.5 111.5t-111.5 167.5t-41.5 203.5zM295 524 q0 -109 76.5 -185.5t185.5 -76.5t185.5 76.5t76.5 185.5t-76.5 185.5t-185.5 76.5t-185.5 -76.5t-76.5 -185.5zM360 1343q0 41 29 70t70 29q40 0 69 -29l131 -131q29 -29 29 -70t-28.5 -69.5t-69.5 -28.5t-70 29l-131 131q-29 29 -29 69z" />
<glyph unicode="&#xe1;" d="M33 524q0 142 70 263t191 191.5t263 70.5t263 -70.5t191 -191.5t70 -263q0 -135 -69 -260q39 -17 62.5 -53t23.5 -80q0 -61 -43 -104t-105 -43q-44 0 -80 23.5t-55 62.5q-118 -70 -258 -70q-106 0 -203.5 41.5t-167.5 111.5t-111.5 167.5t-41.5 203.5zM295 524 q0 -109 76.5 -185.5t185.5 -76.5t185.5 76.5t76.5 185.5t-76.5 185.5t-185.5 76.5t-185.5 -76.5t-76.5 -185.5zM426 1212q0 41 29 70l131 131q29 29 69 29q41 0 70 -29t29 -70q0 -40 -29 -69l-131 -131q-29 -29 -70 -29t-69.5 28.5t-28.5 69.5z" />
<glyph unicode="&#xe2;" d="M33 524q0 142 70 263t191 191.5t263 70.5t263 -70.5t191 -191.5t70 -263q0 -135 -69 -260q39 -17 62.5 -53t23.5 -80q0 -61 -43 -104t-105 -43q-44 0 -80 23.5t-55 62.5q-118 -70 -258 -70q-106 0 -203.5 41.5t-167.5 111.5t-111.5 167.5t-41.5 203.5zM295 524 q0 -109 76.5 -185.5t185.5 -76.5t185.5 76.5t76.5 185.5t-76.5 185.5t-185.5 76.5t-185.5 -76.5t-76.5 -185.5zM328 1212q0 42 28 70l131 131q29 29 70 29t70 -29l131 -131q28 -28 28 -70q0 -41 -28.5 -69.5t-69.5 -28.5t-70 29l-61 61l-61 -61q-29 -29 -70 -29t-69.5 28.5 t-28.5 69.5z" />
<glyph unicode="&#xe3;" d="M33 524q0 142 70 263t191 191.5t263 70.5t263 -70.5t191 -191.5t70 -263q0 -135 -69 -260q39 -17 62.5 -53t23.5 -80q0 -61 -43 -104t-105 -43q-44 0 -80 23.5t-55 62.5q-118 -70 -258 -70q-106 0 -203.5 41.5t-167.5 111.5t-111.5 167.5t-41.5 203.5zM229 1212 q0 41 29 70q94 94 213 94q40 0 97 -32.5t75 -32.5q24 0 38.5 8t35.5 29q28 28 69 28t70 -28.5t29 -69.5t-29 -70q-94 -94 -213 -94q-40 0 -97 33t-75 33q-24 0 -38.5 -8t-35.5 -29q-29 -29 -69 -29q-41 0 -70 28.5t-29 69.5zM295 524q0 -109 76.5 -185.5t185.5 -76.5 t185.5 76.5t76.5 185.5t-76.5 185.5t-185.5 76.5t-185.5 -76.5t-76.5 -185.5z" />
<glyph unicode="&#xe4;" d="M33 524q0 142 70 263t191 191.5t263 70.5t263 -70.5t191 -191.5t70 -263q0 -135 -69 -260q39 -17 62.5 -53t23.5 -80q0 -61 -43 -104t-105 -43q-44 0 -80 23.5t-55 62.5q-118 -70 -258 -70q-106 0 -203.5 41.5t-167.5 111.5t-111.5 167.5t-41.5 203.5zM262 1245 q0 54 38.5 92.5t92.5 38.5t92.5 -38.5t38.5 -92.5t-38.5 -92.5t-92.5 -38.5t-92.5 38.5t-38.5 92.5zM295 524q0 -109 76.5 -185.5t185.5 -76.5t185.5 76.5t76.5 185.5t-76.5 185.5t-185.5 76.5t-185.5 -76.5t-76.5 -185.5zM590 1245q0 54 38.5 92.5t92.5 38.5t92.5 -38.5 t38.5 -92.5t-38.5 -92.5t-92.5 -38.5t-92.5 38.5t-38.5 92.5z" />
<glyph unicode="&#xe5;" d="M33 524q0 150 79 276t210 191q-52 74 -52 164q0 119 84 203t203 84t203 -84t84 -203q0 -91 -51 -164q130 -66 209 -191.5t79 -275.5q0 -135 -69 -260q39 -17 62.5 -53t23.5 -80q0 -61 -43 -104t-105 -43q-44 0 -80 23.5t-55 62.5q-118 -70 -258 -70q-106 0 -203.5 41.5 t-167.5 111.5t-111.5 167.5t-41.5 203.5zM295 524q0 -109 76.5 -185.5t185.5 -76.5t185.5 76.5t76.5 185.5t-76.5 185.5t-185.5 76.5t-185.5 -76.5t-76.5 -185.5zM451 1155q0 -44 31 -75t75 -31t75.5 31t31.5 75t-31.5 75.5t-75.5 31.5t-75 -31.5t-31 -75.5z" />
<glyph unicode="&#xe6;" horiz-adv-x="1900" d="M33 524q0 142 70 263t191 191.5t263 70.5q115 0 217 -47.5t176 -131.5q74 84 175.5 131.5t217.5 47.5q142 0 263 -70.5t191.5 -191.5t70.5 -263q0 -54 -38.5 -92.5t-92.5 -38.5h-621q34 -61 94 -96t133 -35h132q54 0 92.5 -38.5t38.5 -92.5t-38.5 -92.5t-92.5 -38.5h-132 q-139 0 -260 70q-17 -39 -53 -62.5t-80 -23.5t-80 23.5t-55 62.5q-118 -70 -258 -70q-106 0 -203.5 41.5t-167.5 111.5t-111.5 167.5t-41.5 203.5zM295 524q0 -109 76.5 -185.5t185.5 -76.5t185.5 76.5t76.5 185.5t-76.5 185.5t-185.5 76.5t-185.5 -76.5t-76.5 -185.5z M1116 655h455q-34 59 -95.5 95t-132.5 36q-72 0 -132.5 -35.5t-94.5 -95.5z" />
<glyph unicode="&#xe7;" horiz-adv-x="999" d="M33 524q0 142 70 263t191 191.5t263 70.5q102 0 199 -39.5t172 -114.5q39 -39 39 -92q0 -54 -39 -92.5t-92 -38.5q-57 0 -93 39q-78 75 -186 75q-109 0 -185.5 -76.5t-76.5 -185.5t76.5 -185.5t185.5 -76.5q107 0 186 76q39 39 93 39q52 0 91.5 -39.5t39.5 -91.5 q0 -53 -39 -92q-58 -58 -123 -93q47 -76 47 -159q0 -122 -87 -208.5t-208 -86.5q-123 0 -209 86q-29 29 -29 69q0 41 29 70t70 29q40 0 69 -29t70 -29q40 0 69 29.5t29 69.5t-29 69t-69 29q-106 0 -203.5 41.5t-167.5 111.5t-111.5 167.5t-41.5 203.5z" />
<glyph unicode="&#xe8;" horiz-adv-x="1114" d="M33 524q0 142 70 263t191 191.5t263 70.5t263 -70.5t191 -191.5t70 -263q0 -54 -38.5 -92.5t-92.5 -38.5h-620q34 -61 94 -96t133 -35h131q54 0 92.5 -38.5t38.5 -92.5t-38.5 -92.5t-92.5 -38.5h-131q-106 0 -203.5 41.5t-167.5 111.5t-111.5 167.5t-41.5 203.5zM330 655 h454q-34 59 -95 95t-132 36q-72 0 -132.5 -35.5t-94.5 -95.5zM360 1343q0 41 29 70t70 29q40 0 69 -29l131 -131q29 -29 29 -70t-28.5 -69.5t-69.5 -28.5t-70 29l-131 131q-29 29 -29 69z" />
<glyph unicode="&#xe9;" horiz-adv-x="1114" d="M33 524q0 142 70 263t191 191.5t263 70.5t263 -70.5t191 -191.5t70 -263q0 -54 -38.5 -92.5t-92.5 -38.5h-620q34 -61 94 -96t133 -35h131q54 0 92.5 -38.5t38.5 -92.5t-38.5 -92.5t-92.5 -38.5h-131q-106 0 -203.5 41.5t-167.5 111.5t-111.5 167.5t-41.5 203.5zM330 655 h454q-34 59 -95 95t-132 36q-72 0 -132.5 -35.5t-94.5 -95.5zM426 1212q0 41 29 70l131 131q29 29 69 29q41 0 70 -29t29 -70q0 -40 -29 -69l-131 -131q-29 -29 -70 -29t-69.5 28.5t-28.5 69.5z" />
<glyph unicode="&#xea;" horiz-adv-x="1114" d="M33 524q0 142 70 263t191 191.5t263 70.5t263 -70.5t191 -191.5t70 -263q0 -54 -38.5 -92.5t-92.5 -38.5h-620q34 -61 94 -96t133 -35h131q54 0 92.5 -38.5t38.5 -92.5t-38.5 -92.5t-92.5 -38.5h-131q-106 0 -203.5 41.5t-167.5 111.5t-111.5 167.5t-41.5 203.5z M328 1212q0 42 28 70l131 131q29 29 70 29t70 -29l131 -131q28 -28 28 -70q0 -41 -28.5 -69.5t-69.5 -28.5t-70 29l-61 61l-61 -61q-29 -29 -70 -29t-69.5 28.5t-28.5 69.5zM330 655h454q-34 59 -95 95t-132 36q-72 0 -132.5 -35.5t-94.5 -95.5z" />
<glyph unicode="&#xeb;" horiz-adv-x="1114" d="M33 524q0 142 70 263t191 191.5t263 70.5t263 -70.5t191 -191.5t70 -263q0 -54 -38.5 -92.5t-92.5 -38.5h-620q34 -61 94 -96t133 -35h131q54 0 92.5 -38.5t38.5 -92.5t-38.5 -92.5t-92.5 -38.5h-131q-106 0 -203.5 41.5t-167.5 111.5t-111.5 167.5t-41.5 203.5z M262 1245q0 54 38.5 92.5t92.5 38.5t92.5 -38.5t38.5 -92.5t-38.5 -92.5t-92.5 -38.5t-92.5 38.5t-38.5 92.5zM330 655h454q-34 59 -95 95t-132 36q-72 0 -132.5 -35.5t-94.5 -95.5zM590 1245q0 54 38.5 92.5t92.5 38.5t92.5 -38.5t38.5 -92.5t-38.5 -92.5t-92.5 -38.5 t-92.5 38.5t-38.5 92.5z" />
<glyph unicode="&#xec;" horiz-adv-x="425" d="M16 1343q0 41 29 70t70 29q40 0 69 -29l131 -131q29 -29 29 -70t-28.5 -69.5t-69.5 -28.5t-70 29l-131 131q-29 29 -29 69zM82 131v787q0 54 38.5 92.5t92.5 38.5t92.5 -38.5t38.5 -92.5v-787q0 -54 -38.5 -92.5t-92.5 -38.5t-92.5 38.5t-38.5 92.5z" />
<glyph unicode="&#xed;" horiz-adv-x="425" d="M82 131v787q0 54 38.5 92.5t92.5 38.5t92.5 -38.5t38.5 -92.5v-787q0 -54 -38.5 -92.5t-92.5 -38.5t-92.5 38.5t-38.5 92.5zM82 1212q0 41 29 70l131 131q29 29 69 29q41 0 70 -29t29 -70q0 -40 -29 -69l-131 -131q-29 -29 -70 -29t-69.5 28.5t-28.5 69.5z" />
<glyph unicode="&#xee;" horiz-adv-x="425" d="M-16 1212q0 42 28 70l131 131q29 29 70 29t70 -29l131 -131q28 -28 28 -70q0 -41 -28.5 -69.5t-69.5 -28.5t-70 29l-61 61l-61 -61q-29 -29 -70 -29t-69.5 28.5t-28.5 69.5zM82 131v787q0 54 38.5 92.5t92.5 38.5t92.5 -38.5t38.5 -92.5v-787q0 -54 -38.5 -92.5 t-92.5 -38.5t-92.5 38.5t-38.5 92.5z" />
<glyph unicode="&#xef;" horiz-adv-x="425" d="M-82 1245q0 54 38.5 92.5t92.5 38.5t92.5 -38.5t38.5 -92.5t-38.5 -92.5t-92.5 -38.5t-92.5 38.5t-38.5 92.5zM82 131v787q0 54 38.5 92.5t92.5 38.5t92.5 -38.5t38.5 -92.5v-787q0 -54 -38.5 -92.5t-92.5 -38.5t-92.5 38.5t-38.5 92.5zM246 1245q0 54 38.5 92.5 t92.5 38.5t92.5 -38.5t38.5 -92.5t-38.5 -92.5t-92.5 -38.5t-92.5 38.5t-38.5 92.5z" />
<glyph unicode="&#xf0;" d="M49 426q0 177 124.5 301.5t301.5 124.5h197q80 0 164 -33v99q0 44 -21 102l-74 -74q-28 -28 -69 -28t-70 28.5t-29 69.5q0 40 29 69l74 74q-58 21 -103 21h-65q-54 0 -92.5 38.5t-38.5 92.5t38.5 92.5t92.5 38.5h65q157 0 293 -92l64 63q29 29 69 29q41 0 70 -29t29 -70 q0 -40 -29 -69l-63 -64q92 -136 92 -292v-492q0 -177 -124.5 -301.5t-301.5 -124.5h-197q-177 0 -301.5 124.5t-124.5 301.5zM311 426q0 -68 48.5 -116t115.5 -48h197q68 0 116 48t48 116t-48 116t-116 48h-197q-67 0 -115.5 -48t-48.5 -116z" />
<glyph unicode="&#xf1;" horiz-adv-x="1179" d="M66 918q0 62 43 104.5t104 42.5q44 0 80 -23.5t53 -62.5q127 70 260 70q142 0 263 -70.5t191 -191.5t70 -263v-393q0 -54 -38.5 -92.5t-92.5 -38.5t-92.5 38.5t-38.5 92.5v393q0 109 -76.5 185.5t-185.5 76.5t-185.5 -76.5t-76.5 -185.5v-393q0 -54 -38.5 -92.5 t-92.5 -38.5t-92.5 38.5t-38.5 92.5v393q0 140 70 258q-39 19 -62.5 55.5t-23.5 80.5zM279 1212q0 42 28 70q94 94 213 94q40 0 97 -32.5t75 -32.5q24 0 38.5 8t35.5 29q28 28 70 28q41 0 69.5 -28.5t28.5 -69.5t-29 -70q-94 -94 -213 -94q-40 0 -97 33t-75 33 q-24 0 -38.5 -8t-35.5 -29q-29 -29 -69 -29q-41 0 -69.5 28.5t-28.5 69.5z" />
<glyph unicode="&#xf2;" horiz-adv-x="1114" d="M33 524q0 142 70 263t191 191.5t263 70.5t263 -70.5t191 -191.5t70 -263q0 -106 -41.5 -203.5t-111.5 -167.5t-167.5 -111.5t-203.5 -41.5t-203.5 41.5t-167.5 111.5t-111.5 167.5t-41.5 203.5zM295 524q0 -109 76.5 -185.5t185.5 -76.5t185.5 76.5t76.5 185.5 t-76.5 185.5t-185.5 76.5t-185.5 -76.5t-76.5 -185.5zM360 1343q0 41 29 70t70 29q40 0 69 -29l131 -131q29 -29 29 -70t-28.5 -69.5t-69.5 -28.5t-70 29l-131 131q-29 29 -29 69z" />
<glyph unicode="&#xf3;" horiz-adv-x="1114" d="M33 524q0 142 70 263t191 191.5t263 70.5t263 -70.5t191 -191.5t70 -263q0 -106 -41.5 -203.5t-111.5 -167.5t-167.5 -111.5t-203.5 -41.5t-203.5 41.5t-167.5 111.5t-111.5 167.5t-41.5 203.5zM295 524q0 -109 76.5 -185.5t185.5 -76.5t185.5 76.5t76.5 185.5 t-76.5 185.5t-185.5 76.5t-185.5 -76.5t-76.5 -185.5zM426 1212q0 41 29 70l131 131q29 29 69 29q41 0 70 -29t29 -70q0 -40 -29 -69l-131 -131q-29 -29 -70 -29t-69.5 28.5t-28.5 69.5z" />
<glyph unicode="&#xf4;" horiz-adv-x="1114" d="M33 524q0 142 70 263t191 191.5t263 70.5t263 -70.5t191 -191.5t70 -263q0 -106 -41.5 -203.5t-111.5 -167.5t-167.5 -111.5t-203.5 -41.5t-203.5 41.5t-167.5 111.5t-111.5 167.5t-41.5 203.5zM295 524q0 -109 76.5 -185.5t185.5 -76.5t185.5 76.5t76.5 185.5 t-76.5 185.5t-185.5 76.5t-185.5 -76.5t-76.5 -185.5zM328 1212q0 42 28 70l131 131q29 29 70 29t70 -29l131 -131q28 -28 28 -70q0 -41 -28.5 -69.5t-69.5 -28.5t-70 29l-61 61l-61 -61q-29 -29 -70 -29t-69.5 28.5t-28.5 69.5z" />
<glyph unicode="&#xf5;" horiz-adv-x="1114" d="M33 524q0 142 70 263t191 191.5t263 70.5t263 -70.5t191 -191.5t70 -263q0 -106 -41.5 -203.5t-111.5 -167.5t-167.5 -111.5t-203.5 -41.5t-203.5 41.5t-167.5 111.5t-111.5 167.5t-41.5 203.5zM229 1212q0 41 29 70q94 94 213 94q40 0 97 -32.5t75 -32.5q24 0 38.5 8 t35.5 29q28 28 69 28t70 -28.5t29 -69.5t-29 -70q-94 -94 -213 -94q-40 0 -97 33t-75 33q-24 0 -38.5 -8t-35.5 -29q-29 -29 -69 -29q-41 0 -70 28.5t-29 69.5zM295 524q0 -109 76.5 -185.5t185.5 -76.5t185.5 76.5t76.5 185.5t-76.5 185.5t-185.5 76.5t-185.5 -76.5 t-76.5 -185.5z" />
<glyph unicode="&#xf6;" horiz-adv-x="1114" d="M33 524q0 142 70 263t191 191.5t263 70.5t263 -70.5t191 -191.5t70 -263q0 -106 -41.5 -203.5t-111.5 -167.5t-167.5 -111.5t-203.5 -41.5t-203.5 41.5t-167.5 111.5t-111.5 167.5t-41.5 203.5zM262 1245q0 54 38.5 92.5t92.5 38.5t92.5 -38.5t38.5 -92.5t-38.5 -92.5 t-92.5 -38.5t-92.5 38.5t-38.5 92.5zM295 524q0 -109 76.5 -185.5t185.5 -76.5t185.5 76.5t76.5 185.5t-76.5 185.5t-185.5 76.5t-185.5 -76.5t-76.5 -185.5zM590 1245q0 54 38.5 92.5t92.5 38.5t92.5 -38.5t38.5 -92.5t-38.5 -92.5t-92.5 -38.5t-92.5 38.5t-38.5 92.5z" />
<glyph unicode="&#xf7;" d="M49 655q0 54 38.5 92.5t92.5 38.5h787q54 0 92.5 -38.5t38.5 -92.5t-38.5 -92.5t-92.5 -38.5h-787q-54 0 -92.5 38.5t-38.5 92.5zM426 246q0 62 43 104.5t104 42.5q62 0 105 -43t43 -104q0 -62 -43.5 -105t-104.5 -43t-104 43t-43 105zM426 1065q0 61 43 104t104 43 q62 0 105 -43t43 -104t-43 -104t-105 -43q-61 0 -104 43t-43 104z" />
<glyph unicode="&#xf8;" d="M49 98q0 41 29 70l61 61q-90 133 -90 295q0 142 70 263t191 191.5t263 70.5q156 0 293 -93l64 64q29 29 69 29q41 0 70 -29t29 -70q0 -40 -29 -69l-63 -64q92 -136 92 -293q0 -142 -70.5 -263t-191.5 -191t-263 -70q-161 0 -294 90l-62 -61q-29 -29 -70 -29t-69.5 28.5 t-28.5 69.5zM311 524q0 -56 21 -102l344 344q-55 20 -103 20q-109 0 -185.5 -76.5t-76.5 -185.5zM471 283q47 -21 102 -21q109 0 186 76.5t77 185.5q0 45 -21 103z" />
<glyph unicode="&#xf9;" horiz-adv-x="1179" d="M49 524v394q0 54 38.5 92.5t92.5 38.5t92.5 -38.5t38.5 -92.5v-394q0 -109 76.5 -185.5t185.5 -76.5t186 76.5t77 185.5v394q0 54 38.5 92.5t92.5 38.5t92.5 -38.5t38.5 -92.5v-394q0 -133 -70 -260q39 -17 62.5 -53t23.5 -80q0 -61 -43 -104t-104 -43q-44 0 -80.5 23.5 t-55.5 62.5q-118 -70 -258 -70q-106 0 -203.5 41.5t-167.5 111.5t-111.5 167.5t-41.5 203.5zM377 1343q0 41 28.5 70t69.5 29t70 -29l131 -131q29 -29 29 -70t-29 -69.5t-70 -28.5q-40 0 -69 29l-131 131q-29 29 -29 69z" />
<glyph unicode="&#xfa;" horiz-adv-x="1179" d="M49 524v394q0 54 38.5 92.5t92.5 38.5t92.5 -38.5t38.5 -92.5v-394q0 -109 76.5 -185.5t185.5 -76.5t186 76.5t77 185.5v394q0 54 38.5 92.5t92.5 38.5t92.5 -38.5t38.5 -92.5v-394q0 -133 -70 -260q39 -17 62.5 -53t23.5 -80q0 -61 -43 -104t-104 -43q-44 0 -80.5 23.5 t-55.5 62.5q-118 -70 -258 -70q-106 0 -203.5 41.5t-167.5 111.5t-111.5 167.5t-41.5 203.5zM442 1212q0 41 29 70l131 131q29 29 70 29t69.5 -29t28.5 -70q0 -40 -29 -69l-131 -131q-29 -29 -69 -29q-41 0 -70 28.5t-29 69.5z" />
<glyph unicode="&#xfb;" horiz-adv-x="1179" d="M49 524v394q0 54 38.5 92.5t92.5 38.5t92.5 -38.5t38.5 -92.5v-394q0 -109 76.5 -185.5t185.5 -76.5t186 76.5t77 185.5v394q0 54 38.5 92.5t92.5 38.5t92.5 -38.5t38.5 -92.5v-394q0 -133 -70 -260q39 -17 62.5 -53t23.5 -80q0 -61 -43 -104t-104 -43q-44 0 -80.5 23.5 t-55.5 62.5q-118 -70 -258 -70q-106 0 -203.5 41.5t-167.5 111.5t-111.5 167.5t-41.5 203.5zM344 1212q0 41 29 70l131 131q29 29 69 29q41 0 70 -29l131 -131q29 -29 29 -70t-28.5 -69.5t-69.5 -28.5t-70 29l-62 61l-61 -61q-29 -29 -70 -29t-69.5 28.5t-28.5 69.5z" />
<glyph unicode="&#xfc;" horiz-adv-x="1179" d="M49 524v394q0 54 38.5 92.5t92.5 38.5t92.5 -38.5t38.5 -92.5v-394q0 -109 76.5 -185.5t185.5 -76.5t186 76.5t77 185.5v394q0 54 38.5 92.5t92.5 38.5t92.5 -38.5t38.5 -92.5v-394q0 -133 -70 -260q39 -17 62.5 -53t23.5 -80q0 -61 -43 -104t-104 -43q-44 0 -80.5 23.5 t-55.5 62.5q-118 -70 -258 -70q-106 0 -203.5 41.5t-167.5 111.5t-111.5 167.5t-41.5 203.5zM279 1245q0 54 38.5 92.5t92.5 38.5t92.5 -38.5t38.5 -92.5t-38.5 -92.5t-92.5 -38.5t-92.5 38.5t-38.5 92.5zM606 1245q0 54 38.5 92.5t92.5 38.5t92.5 -38.5t38.5 -92.5 t-38.5 -92.5t-92.5 -38.5t-92.5 38.5t-38.5 92.5z" />
<glyph unicode="&#xfd;" horiz-adv-x="1179" d="M49 524v394q0 54 38.5 92.5t92.5 38.5t92.5 -38.5t38.5 -92.5v-394q0 -109 76.5 -185.5t185.5 -76.5t186 76.5t77 185.5v394q0 54 38.5 92.5t92.5 38.5t92.5 -38.5t38.5 -92.5v-787q0 -142 -70.5 -263t-191.5 -191t-263 -70q-102 0 -198.5 39t-171.5 114q-39 39 -39 93 q0 53 39 92t92 39t92 -39q79 -76 186 -76q91 0 161.5 55.5t92.5 141.5q-122 -66 -254 -66q-106 0 -203.5 41.5t-167.5 111.5t-111.5 167.5t-41.5 203.5zM442 1212q0 41 29 70l131 131q29 29 70 29t69.5 -29t28.5 -70q0 -40 -29 -69l-131 -131q-29 -29 -69 -29 q-41 0 -70 28.5t-29 69.5z" />
<glyph unicode="&#xfe;" horiz-adv-x="1163" d="M82 -262v1573q0 54 38.5 92.5t92.5 38.5t92.5 -38.5t38.5 -92.5v-334q122 72 262 72q142 0 263 -70.5t191 -191.5t70 -263q0 -106 -41.5 -203.5t-111.5 -167.5t-167.5 -111.5t-203.5 -41.5q-144 0 -262 70v-332q0 -54 -38.5 -92.5t-92.5 -38.5t-92.5 38.5t-38.5 92.5z M344 524q0 -109 76.5 -185.5t185.5 -76.5t185.5 76.5t76.5 185.5t-76.5 185.5t-185.5 76.5t-185.5 -76.5t-76.5 -185.5z" />
<glyph unicode="&#xff;" horiz-adv-x="1179" d="M49 524v394q0 54 38.5 92.5t92.5 38.5t92.5 -38.5t38.5 -92.5v-394q0 -109 76.5 -185.5t185.5 -76.5t186 76.5t77 185.5v394q0 54 38.5 92.5t92.5 38.5t92.5 -38.5t38.5 -92.5v-787q0 -142 -70.5 -263t-191.5 -191t-263 -70q-102 0 -198.5 39t-171.5 114q-39 39 -39 93 q0 53 39 92t92 39t92 -39q79 -76 186 -76q91 0 161.5 55.5t92.5 141.5q-122 -66 -254 -66q-106 0 -203.5 41.5t-167.5 111.5t-111.5 167.5t-41.5 203.5zM279 1245q0 54 38.5 92.5t92.5 38.5t92.5 -38.5t38.5 -92.5t-38.5 -92.5t-92.5 -38.5t-92.5 38.5t-38.5 92.5zM606 1245 q0 54 38.5 92.5t92.5 38.5t92.5 -38.5t38.5 -92.5t-38.5 -92.5t-92.5 -38.5t-92.5 38.5t-38.5 92.5z" />
<glyph unicode="&#x152;" horiz-adv-x="1753" d="M33 655q0 178 87.5 329t238.5 239t329 88h918q54 0 92.5 -38.5t38.5 -92.5t-38.5 -92.5t-92.5 -38.5h-525v-263h394q54 0 92.5 -38.5t38.5 -92.5t-38.5 -92.5t-92.5 -38.5h-394v-262h525q54 0 92.5 -38.5t38.5 -92.5t-38.5 -92.5t-92.5 -38.5h-918q-133 0 -254.5 52 t-209 139.5t-139.5 209t-52 254.5zM295 655q0 -163 115 -278t278 -115h131v787h-131q-163 0 -278 -115.5t-115 -278.5z" />
<glyph unicode="&#x153;" horiz-adv-x="1900" d="M33 524q0 142 70 263t191 191.5t263 70.5q115 0 217 -47.5t176 -131.5q74 84 175.5 131.5t217.5 47.5q142 0 263 -70.5t191.5 -191.5t70.5 -263q0 -54 -38.5 -92.5t-92.5 -38.5h-621q34 -61 94 -96t133 -35h132q54 0 92.5 -38.5t38.5 -92.5t-38.5 -92.5t-92.5 -38.5h-132 q-117 0 -218.5 47t-174.5 131q-73 -84 -175 -131t-218 -47q-106 0 -203.5 41.5t-167.5 111.5t-111.5 167.5t-41.5 203.5zM295 524q0 -109 76.5 -185.5t185.5 -76.5t185.5 76.5t76.5 185.5t-76.5 185.5t-185.5 76.5t-185.5 -76.5t-76.5 -185.5zM1116 655h455q-34 59 -95.5 95 t-132.5 36q-72 0 -132.5 -35.5t-94.5 -95.5z" />
<glyph unicode="&#x178;" horiz-adv-x="1343" d="M16 1180q0 52 39 91.5t92 39.5q54 0 93 -39l432 -432l432 432q39 39 92 39q52 0 91.5 -39.5t39.5 -91.5q0 -54 -39 -93l-485 -485v-471q0 -54 -38.5 -92.5t-92.5 -38.5t-92.5 38.5t-38.5 92.5v471l-486 485q-39 39 -39 93zM377 1507q0 54 38.5 92.5t92.5 38.5t92.5 -38.5 t38.5 -92.5t-38.5 -92.5t-92.5 -38.5t-92.5 38.5t-38.5 92.5zM705 1507q0 54 38.5 92.5t92.5 38.5t92.5 -38.5t38.5 -92.5t-38.5 -92.5t-92.5 -38.5t-92.5 38.5t-38.5 92.5z" />
<glyph unicode="&#x2c6;" horiz-adv-x="557" d="M49 1212q0 41 29 70l131 131q29 29 70 29q40 0 69 -29l131 -131q29 -29 29 -70t-28.5 -69.5t-69.5 -28.5t-70 29l-61 61l-62 -61q-29 -29 -70 -29t-69.5 28.5t-28.5 69.5z" />
<glyph unicode="&#x2dc;" horiz-adv-x="753" d="M49 1212q0 41 29 70q94 94 213 94q40 0 97 -32.5t75 -32.5q24 0 38.5 8t35.5 29q28 28 69 28t70 -28.5t29 -69.5t-29 -70q-94 -94 -213 -94q-40 0 -97 33t-75 33q-24 0 -38.5 -8t-35.5 -29q-29 -29 -70 -29t-69.5 28.5t-28.5 69.5z" />
<glyph unicode="&#x2000;" horiz-adv-x="852" />
<glyph unicode="&#x2001;" horiz-adv-x="1704" />
<glyph unicode="&#x2002;" horiz-adv-x="852" />
<glyph unicode="&#x2003;" horiz-adv-x="1704" />
<glyph unicode="&#x2004;" horiz-adv-x="568" />
<glyph unicode="&#x2005;" horiz-adv-x="426" />
<glyph unicode="&#x2006;" horiz-adv-x="284" />
<glyph unicode="&#x2007;" horiz-adv-x="284" />
<glyph unicode="&#x2008;" horiz-adv-x="213" />
<glyph unicode="&#x2009;" horiz-adv-x="340" />
<glyph unicode="&#x200a;" horiz-adv-x="94" />
<glyph unicode="&#x2010;" horiz-adv-x="753" d="M49 655q0 54 38.5 92.5t92.5 38.5h393q54 0 93 -38.5t39 -92.5t-39 -92.5t-93 -38.5h-393q-54 0 -92.5 38.5t-38.5 92.5z" />
<glyph unicode="&#x2011;" horiz-adv-x="753" d="M49 655q0 54 38.5 92.5t92.5 38.5h393q54 0 93 -38.5t39 -92.5t-39 -92.5t-93 -38.5h-393q-54 0 -92.5 38.5t-38.5 92.5z" />
<glyph unicode="&#x2012;" horiz-adv-x="753" d="M49 655q0 54 38.5 92.5t92.5 38.5h393q54 0 93 -38.5t39 -92.5t-39 -92.5t-93 -38.5h-393q-54 0 -92.5 38.5t-38.5 92.5z" />
<glyph unicode="&#x2013;" d="M49 655q0 54 38.5 92.5t92.5 38.5h787q54 0 92.5 -38.5t38.5 -92.5t-38.5 -92.5t-92.5 -38.5h-787q-54 0 -92.5 38.5t-38.5 92.5z" />
<glyph unicode="&#x2014;" horiz-adv-x="1605" d="M49 655q0 54 38.5 92.5t92.5 38.5h1245q54 0 92.5 -38.5t38.5 -92.5t-38.5 -92.5t-92.5 -38.5h-1245q-54 0 -92.5 38.5t-38.5 92.5z" />
<glyph unicode="&#x2018;" horiz-adv-x="360" d="M49 1049v262q0 54 38.5 92.5t92.5 38.5t92.5 -38.5t38.5 -92.5v-262q0 -54 -38.5 -92.5t-92.5 -38.5t-92.5 38.5t-38.5 92.5z" />
<glyph unicode="&#x2019;" horiz-adv-x="360" d="M49 1049v262q0 54 38.5 92.5t92.5 38.5t92.5 -38.5t38.5 -92.5v-262q0 -54 -38.5 -92.5t-92.5 -38.5t-92.5 38.5t-38.5 92.5z" />
<glyph unicode="&#x201a;" horiz-adv-x="360" d="M49 -131v262q0 54 38.5 92.5t92.5 38.5t92.5 -38.5t38.5 -92.5v-262q0 -54 -38.5 -92.5t-92.5 -38.5t-92.5 38.5t-38.5 92.5z" />
<glyph unicode="&#x201c;" horiz-adv-x="688" d="M49 1049v262q0 54 38.5 92.5t92.5 38.5t92.5 -38.5t38.5 -92.5v-262q0 -54 -38.5 -92.5t-92.5 -38.5t-92.5 38.5t-38.5 92.5zM377 1049v262q0 54 38.5 92.5t92.5 38.5t92.5 -38.5t38.5 -92.5v-262q0 -54 -38.5 -92.5t-92.5 -38.5t-92.5 38.5t-38.5 92.5z" />
<glyph unicode="&#x201d;" horiz-adv-x="688" d="M49 1049v262q0 54 38.5 92.5t92.5 38.5t92.5 -38.5t38.5 -92.5v-262q0 -54 -38.5 -92.5t-92.5 -38.5t-92.5 38.5t-38.5 92.5zM377 1049v262q0 54 38.5 92.5t92.5 38.5t92.5 -38.5t38.5 -92.5v-262q0 -54 -38.5 -92.5t-92.5 -38.5t-92.5 38.5t-38.5 92.5z" />
<glyph unicode="&#x201e;" horiz-adv-x="688" d="M49 -131v262q0 54 38.5 92.5t92.5 38.5t92.5 -38.5t38.5 -92.5v-262q0 -54 -38.5 -92.5t-92.5 -38.5t-92.5 38.5t-38.5 92.5zM377 -131v262q0 54 38.5 92.5t92.5 38.5t92.5 -38.5t38.5 -92.5v-262q0 -54 -38.5 -92.5t-92.5 -38.5t-92.5 38.5t-38.5 92.5z" />
<glyph unicode="&#x2022;" horiz-adv-x="753" d="M49 655q0 135 96.5 231.5t231.5 96.5t231.5 -96.5t96.5 -231.5t-96.5 -231t-231.5 -96t-231.5 96t-96.5 231z" />
<glyph unicode="&#x2026;" d="M33 147q0 62 43 105t104 43q62 0 105 -43.5t43 -104.5t-43 -104t-105 -43t-104.5 43t-42.5 104zM426 147q0 62 43 105t104 43t104.5 -43.5t43.5 -104.5t-43 -104t-105 -43q-61 0 -104 43t-43 104zM819 147q0 61 43.5 104.5t104.5 43.5t104 -43t43 -105q0 -61 -43 -104 t-104 -43q-62 0 -105 43t-43 104z" />
<glyph unicode="&#x202f;" horiz-adv-x="340" />
<glyph unicode="&#x2039;" horiz-adv-x="688" d="M49 524q0 55 37 92l330 328q39 39 92 39q52 0 91.5 -39.5t39.5 -91.5q0 -55 -37 -92l-235 -236l235 -235q34 -37 37 -92q0 -53 -39.5 -92t-91.5 -39q-54 0 -92 38l-330 328q-37 34 -37 92z" />
<glyph unicode="&#x203a;" horiz-adv-x="688" d="M49 197q0 55 37 92l236 235l-236 236q-37 34 -37 92q0 52 39.5 91.5t91.5 39.5q53 0 92 -39l330 -328q33 -31 37 -92q0 -55 -37 -92l-330 -328q-38 -38 -92 -38q-52 0 -91.5 39t-39.5 92z" />
<glyph unicode="&#x205f;" horiz-adv-x="426" />
<glyph unicode="&#x20ac;" d="M49 524q0 40 29 69.5t69 29.5h33v65h-33q-40 0 -69 29t-29 69t29 69.5t69 29.5h41q36 183 181.5 304.5t335.5 121.5q102 0 198.5 -39.5t171.5 -114.5q39 -39 39 -92q0 -54 -39 -92.5t-92 -38.5q-56 0 -92 39q-73 76 -186 76q-82 0 -148 -45.5t-96 -118.5h407 q40 0 69.5 -29.5t29.5 -69.5t-29.5 -69t-69.5 -29h-426v-65h361q40 0 69 -29.5t29 -69.5t-29 -69t-69 -29h-342q30 -73 96 -118.5t148 -45.5q107 0 186 76q39 39 92 39t92 -39.5t39 -91.5q0 -53 -39 -92q-75 -75 -171.5 -114.5t-198.5 -39.5q-190 0 -335.5 121.5 t-181.5 304.5h-41q-40 0 -69 29t-29 69z" />
<glyph unicode="&#x2122;" horiz-adv-x="1835" d="M16 1212q0 40 29.5 69.5t69.5 29.5h590q40 0 69 -29.5t29 -69.5t-29 -69t-69 -29h-197v-491q0 -40 -29 -69.5t-69 -29.5t-69.5 29.5t-29.5 69.5v491h-196q-40 0 -69.5 29t-29.5 69zM868 623v589q0 40 29.5 69.5t69.5 29.5t69 -29l291 -291l291 291q29 29 70 29 q40 0 69 -29.5t29 -69.5v-589q0 -40 -29 -69.5t-69 -29.5t-69.5 29.5t-29.5 69.5v352l-192 -193q-28 -28 -70 -28t-70 28l-192 193v-352q0 -40 -29 -69.5t-69 -29.5t-69.5 29.5t-29.5 69.5z" />
<glyph unicode="&#x25fc;" horiz-adv-x="1044" d="M0 0v1044h1044v-1044h-1044z" />
</font>
</defs>
</svg>
